<svg width="667" height="124" viewBox="0 0 667 124" fill="none" xmlns="http://www.w3.org/2000/svg">
<g filter="url(#filter0_d_76:153)">
<rect x="7" y="3" width="653" height="110" rx="20" stroke="#0F46A5" shape-rendering="crispEdges"/>
</g>
<path d="M97.872 36.432C97.872 37.328 97.656 38.168 97.224 38.952C96.808 39.736 96.144 40.368 95.232 40.848C94.336 41.328 93.2 41.568 91.824 41.568H89.016V48H85.656V31.248H91.824C93.12 31.248 94.224 31.472 95.136 31.92C96.048 32.368 96.728 32.984 97.176 33.768C97.64 34.552 97.872 35.44 97.872 36.432ZM91.68 38.856C92.608 38.856 93.296 38.648 93.744 38.232C94.192 37.8 94.416 37.2 94.416 36.432C94.416 34.8 93.504 33.984 91.68 33.984H89.016V38.856H91.68ZM112.618 41.064C112.618 41.544 112.586 41.976 112.522 42.36H102.802C102.882 43.32 103.218 44.072 103.81 44.616C104.402 45.16 105.13 45.432 105.994 45.432C107.242 45.432 108.13 44.896 108.658 43.824H112.282C111.898 45.104 111.162 46.16 110.074 46.992C108.986 47.808 107.65 48.216 106.066 48.216C104.786 48.216 103.634 47.936 102.61 47.376C101.602 46.8 100.81 45.992 100.234 44.952C99.6736 43.912 99.3936 42.712 99.3936 41.352C99.3936 39.976 99.6736 38.768 100.234 37.728C100.794 36.688 101.578 35.888 102.586 35.328C103.594 34.768 104.754 34.488 106.066 34.488C107.33 34.488 108.458 34.76 109.45 35.304C110.458 35.848 111.234 36.624 111.778 37.632C112.338 38.624 112.618 39.768 112.618 41.064ZM109.138 40.104C109.122 39.24 108.81 38.552 108.202 38.04C107.594 37.512 106.85 37.248 105.97 37.248C105.138 37.248 104.434 37.504 103.858 38.016C103.298 38.512 102.954 39.208 102.826 40.104H109.138ZM131.582 34.512C133.214 34.512 134.526 35.016 135.518 36.024C136.526 37.016 137.03 38.408 137.03 40.2V48H133.67V40.656C133.67 39.616 133.406 38.824 132.878 38.28C132.35 37.72 131.63 37.44 130.718 37.44C129.806 37.44 129.078 37.72 128.534 38.28C128.006 38.824 127.742 39.616 127.742 40.656V48H124.382V40.656C124.382 39.616 124.118 38.824 123.59 38.28C123.062 37.72 122.342 37.44 121.43 37.44C120.502 37.44 119.766 37.72 119.222 38.28C118.694 38.824 118.43 39.616 118.43 40.656V48H115.07V34.704H118.43V36.312C118.862 35.752 119.414 35.312 120.086 34.992C120.774 34.672 121.526 34.512 122.342 34.512C123.382 34.512 124.31 34.736 125.126 35.184C125.942 35.616 126.574 36.24 127.022 37.056C127.454 36.288 128.078 35.672 128.894 35.208C129.726 34.744 130.622 34.512 131.582 34.512ZM141.923 33.12C141.331 33.12 140.835 32.936 140.435 32.568C140.051 32.184 139.859 31.712 139.859 31.152C139.859 30.592 140.051 30.128 140.435 29.76C140.835 29.376 141.331 29.184 141.923 29.184C142.515 29.184 143.003 29.376 143.387 29.76C143.787 30.128 143.987 30.592 143.987 31.152C143.987 31.712 143.787 32.184 143.387 32.568C143.003 32.936 142.515 33.12 141.923 33.12ZM143.579 34.704V48H140.219V34.704H143.579ZM150.258 30.24V48H146.898V30.24H150.258ZM155.282 33.12C154.69 33.12 154.194 32.936 153.794 32.568C153.41 32.184 153.218 31.712 153.218 31.152C153.218 30.592 153.41 30.128 153.794 29.76C154.194 29.376 154.69 29.184 155.282 29.184C155.874 29.184 156.362 29.376 156.746 29.76C157.146 30.128 157.346 30.592 157.346 31.152C157.346 31.712 157.146 32.184 156.746 32.568C156.362 32.936 155.874 33.12 155.282 33.12ZM156.938 34.704V48H153.578V34.704H156.938ZM167.746 34.512C168.754 34.512 169.65 34.736 170.434 35.184C171.218 35.616 171.826 36.264 172.258 37.128C172.706 37.976 172.93 39 172.93 40.2V48H169.57V40.656C169.57 39.6 169.306 38.792 168.778 38.232C168.25 37.656 167.53 37.368 166.618 37.368C165.69 37.368 164.954 37.656 164.41 38.232C163.882 38.792 163.618 39.6 163.618 40.656V48H160.258V30.24H163.618V36.36C164.05 35.784 164.626 35.336 165.346 35.016C166.066 34.68 166.866 34.512 167.746 34.512ZM185.204 45.336H190.724V48H181.844V31.248H185.204V45.336ZM198.763 48.216C197.483 48.216 196.331 47.936 195.307 47.376C194.283 46.8 193.475 45.992 192.883 44.952C192.307 43.912 192.019 42.712 192.019 41.352C192.019 39.992 192.315 38.792 192.907 37.752C193.515 36.712 194.339 35.912 195.379 35.352C196.419 34.776 197.579 34.488 198.859 34.488C200.139 34.488 201.299 34.776 202.339 35.352C203.379 35.912 204.195 36.712 204.787 37.752C205.395 38.792 205.699 39.992 205.699 41.352C205.699 42.712 205.387 43.912 204.763 44.952C204.155 45.992 203.323 46.8 202.267 47.376C201.227 47.936 200.059 48.216 198.763 48.216ZM198.763 45.288C199.371 45.288 199.939 45.144 200.467 44.856C201.011 44.552 201.443 44.104 201.763 43.512C202.083 42.92 202.243 42.2 202.243 41.352C202.243 40.088 201.907 39.12 201.235 38.448C200.579 37.76 199.771 37.416 198.811 37.416C197.851 37.416 197.043 37.76 196.387 38.448C195.747 39.12 195.427 40.088 195.427 41.352C195.427 42.616 195.739 43.592 196.363 44.28C197.003 44.952 197.803 45.288 198.763 45.288ZM213.372 34.488C214.364 34.488 215.236 34.688 215.988 35.088C216.74 35.472 217.332 35.976 217.764 36.6V34.704H221.148V48.096C221.148 49.328 220.9 50.424 220.404 51.384C219.908 52.36 219.164 53.128 218.172 53.688C217.18 54.264 215.98 54.552 214.572 54.552C212.684 54.552 211.132 54.112 209.916 53.232C208.716 52.352 208.036 51.152 207.876 49.632H211.212C211.388 50.24 211.764 50.72 212.34 51.072C212.932 51.44 213.644 51.624 214.476 51.624C215.452 51.624 216.244 51.328 216.852 50.736C217.46 50.16 217.764 49.28 217.764 48.096V46.032C217.332 46.656 216.732 47.176 215.964 47.592C215.212 48.008 214.348 48.216 213.372 48.216C212.252 48.216 211.228 47.928 210.3 47.352C209.372 46.776 208.636 45.968 208.092 44.928C207.564 43.872 207.3 42.664 207.3 41.304C207.3 39.96 207.564 38.768 208.092 37.728C208.636 36.688 209.364 35.888 210.276 35.328C211.204 34.768 212.236 34.488 213.372 34.488ZM217.764 41.352C217.764 40.536 217.604 39.84 217.284 39.264C216.964 38.672 216.532 38.224 215.988 37.92C215.444 37.6 214.86 37.44 214.236 37.44C213.612 37.44 213.036 37.592 212.508 37.896C211.98 38.2 211.548 38.648 211.212 39.24C210.892 39.816 210.732 40.504 210.732 41.304C210.732 42.104 210.892 42.808 211.212 43.416C211.548 44.008 211.98 44.464 212.508 44.784C213.052 45.104 213.628 45.264 214.236 45.264C214.86 45.264 215.444 45.112 215.988 44.808C216.532 44.488 216.964 44.04 217.284 43.464C217.604 42.872 217.764 42.168 217.764 41.352ZM233.508 31.248V48H230.148V31.248H233.508ZM244.196 34.512C245.78 34.512 247.06 35.016 248.036 36.024C249.012 37.016 249.5 38.408 249.5 40.2V48H246.14V40.656C246.14 39.6 245.876 38.792 245.348 38.232C244.82 37.656 244.1 37.368 243.188 37.368C242.26 37.368 241.524 37.656 240.98 38.232C240.452 38.792 240.188 39.6 240.188 40.656V48H236.828V34.704H240.188V36.36C240.636 35.784 241.204 35.336 241.892 35.016C242.596 34.68 243.364 34.512 244.196 34.512ZM263.502 48.216C262.414 48.216 261.438 48.024 260.574 47.64C259.71 47.24 259.022 46.704 258.51 46.032C258.014 45.36 257.742 44.616 257.694 43.8H261.078C261.142 44.312 261.39 44.736 261.822 45.072C262.27 45.408 262.822 45.576 263.478 45.576C264.118 45.576 264.614 45.448 264.966 45.192C265.334 44.936 265.518 44.608 265.518 44.208C265.518 43.776 265.294 43.456 264.846 43.248C264.414 43.024 263.718 42.784 262.758 42.528C261.766 42.288 260.95 42.04 260.31 41.784C259.686 41.528 259.142 41.136 258.678 40.608C258.23 40.08 258.006 39.368 258.006 38.472C258.006 37.736 258.214 37.064 258.63 36.456C259.062 35.848 259.67 35.368 260.454 35.016C261.254 34.664 262.19 34.488 263.262 34.488C264.846 34.488 266.11 34.888 267.054 35.688C267.998 36.472 268.518 37.536 268.614 38.88H265.398C265.35 38.352 265.126 37.936 264.726 37.632C264.342 37.312 263.822 37.152 263.166 37.152C262.558 37.152 262.086 37.264 261.75 37.488C261.43 37.712 261.27 38.024 261.27 38.424C261.27 38.872 261.494 39.216 261.942 39.456C262.39 39.68 263.086 39.912 264.03 40.152C264.99 40.392 265.782 40.64 266.406 40.896C267.03 41.152 267.566 41.552 268.014 42.096C268.478 42.624 268.718 43.328 268.734 44.208C268.734 44.976 268.518 45.664 268.086 46.272C267.67 46.88 267.062 47.36 266.262 47.712C265.478 48.048 264.558 48.216 263.502 48.216ZM283.852 41.064C283.852 41.544 283.82 41.976 283.756 42.36H274.036C274.116 43.32 274.452 44.072 275.044 44.616C275.636 45.16 276.364 45.432 277.228 45.432C278.476 45.432 279.364 44.896 279.892 43.824H283.516C283.132 45.104 282.396 46.16 281.308 46.992C280.22 47.808 278.884 48.216 277.3 48.216C276.02 48.216 274.868 47.936 273.844 47.376C272.836 46.8 272.044 45.992 271.468 44.952C270.908 43.912 270.628 42.712 270.628 41.352C270.628 39.976 270.908 38.768 271.468 37.728C272.028 36.688 272.812 35.888 273.82 35.328C274.828 34.768 275.988 34.488 277.3 34.488C278.564 34.488 279.692 34.76 280.684 35.304C281.692 35.848 282.468 36.624 283.012 37.632C283.572 38.624 283.852 39.768 283.852 41.064ZM280.372 40.104C280.356 39.24 280.044 38.552 279.436 38.04C278.828 37.512 278.084 37.248 277.204 37.248C276.372 37.248 275.668 37.504 275.092 38.016C274.532 38.512 274.188 39.208 274.06 40.104H280.372ZM289.664 36.648C290.096 36.008 290.688 35.488 291.44 35.088C292.208 34.688 293.08 34.488 294.056 34.488C295.192 34.488 296.216 34.768 297.128 35.328C298.056 35.888 298.784 36.688 299.312 37.728C299.856 38.752 300.128 39.944 300.128 41.304C300.128 42.664 299.856 43.872 299.312 44.928C298.784 45.968 298.056 46.776 297.128 47.352C296.216 47.928 295.192 48.216 294.056 48.216C293.064 48.216 292.192 48.024 291.44 47.64C290.704 47.24 290.112 46.728 289.664 46.104V48H286.304V30.24H289.664V36.648ZM296.696 41.304C296.696 40.504 296.528 39.816 296.192 39.24C295.872 38.648 295.44 38.2 294.896 37.896C294.368 37.592 293.792 37.44 293.168 37.44C292.56 37.44 291.984 37.6 291.44 37.92C290.912 38.224 290.48 38.672 290.144 39.264C289.824 39.856 289.664 40.552 289.664 41.352C289.664 42.152 289.824 42.848 290.144 43.44C290.48 44.032 290.912 44.488 291.44 44.808C291.984 45.112 292.56 45.264 293.168 45.264C293.792 45.264 294.368 45.104 294.896 44.784C295.44 44.464 295.872 44.008 296.192 43.416C296.528 42.824 296.696 42.12 296.696 41.304ZM314.93 41.064C314.93 41.544 314.898 41.976 314.834 42.36H305.114C305.194 43.32 305.53 44.072 306.122 44.616C306.714 45.16 307.442 45.432 308.306 45.432C309.554 45.432 310.442 44.896 310.97 43.824H314.594C314.21 45.104 313.474 46.16 312.386 46.992C311.298 47.808 309.962 48.216 308.378 48.216C307.098 48.216 305.946 47.936 304.922 47.376C303.914 46.8 303.122 45.992 302.546 44.952C301.986 43.912 301.706 42.712 301.706 41.352C301.706 39.976 301.986 38.768 302.546 37.728C303.106 36.688 303.89 35.888 304.898 35.328C305.906 34.768 307.066 34.488 308.378 34.488C309.642 34.488 310.77 34.76 311.762 35.304C312.77 35.848 313.546 36.624 314.09 37.632C314.65 38.624 314.93 39.768 314.93 41.064ZM311.45 40.104C311.434 39.24 311.122 38.552 310.514 38.04C309.906 37.512 309.162 37.248 308.282 37.248C307.45 37.248 306.746 37.504 306.17 38.016C305.61 38.512 305.266 39.208 305.138 40.104H311.45ZM320.743 30.24V48H317.383V30.24H320.743ZM336.614 34.704V48H333.23V46.32C332.798 46.896 332.23 47.352 331.526 47.688C330.838 48.008 330.086 48.168 329.27 48.168C328.23 48.168 327.31 47.952 326.51 47.52C325.71 47.072 325.078 46.424 324.614 45.576C324.166 44.712 323.942 43.688 323.942 42.504V34.704H327.302V42.024C327.302 43.08 327.566 43.896 328.094 44.472C328.622 45.032 329.342 45.312 330.254 45.312C331.182 45.312 331.91 45.032 332.438 44.472C332.966 43.896 333.23 43.08 333.23 42.024V34.704H336.614ZM356.441 34.512C358.073 34.512 359.385 35.016 360.377 36.024C361.385 37.016 361.889 38.408 361.889 40.2V48H358.529V40.656C358.529 39.616 358.265 38.824 357.737 38.28C357.209 37.72 356.489 37.44 355.577 37.44C354.665 37.44 353.937 37.72 353.393 38.28C352.865 38.824 352.601 39.616 352.601 40.656V48H349.241V40.656C349.241 39.616 348.977 38.824 348.449 38.28C347.921 37.72 347.201 37.44 346.289 37.44C345.361 37.44 344.625 37.72 344.081 38.28C343.553 38.824 343.289 39.616 343.289 40.656V48H339.929V34.704H343.289V36.312C343.721 35.752 344.273 35.312 344.945 34.992C345.633 34.672 346.385 34.512 347.201 34.512C348.241 34.512 349.169 34.736 349.985 35.184C350.801 35.616 351.433 36.24 351.881 37.056C352.313 36.288 352.937 35.672 353.753 35.208C354.585 34.744 355.481 34.512 356.441 34.512ZM387.309 34.512C388.941 34.512 390.253 35.016 391.245 36.024C392.253 37.016 392.757 38.408 392.757 40.2V48H389.397V40.656C389.397 39.616 389.133 38.824 388.605 38.28C388.077 37.72 387.357 37.44 386.445 37.44C385.533 37.44 384.805 37.72 384.261 38.28C383.733 38.824 383.469 39.616 383.469 40.656V48H380.109V40.656C380.109 39.616 379.845 38.824 379.317 38.28C378.789 37.72 378.069 37.44 377.157 37.44C376.229 37.44 375.493 37.72 374.949 38.28C374.421 38.824 374.157 39.616 374.157 40.656V48H370.797V34.704H374.157V36.312C374.589 35.752 375.141 35.312 375.813 34.992C376.501 34.672 377.253 34.512 378.069 34.512C379.109 34.512 380.037 34.736 380.853 35.184C381.669 35.616 382.301 36.24 382.749 37.056C383.181 36.288 383.805 35.672 384.621 35.208C385.453 34.744 386.349 34.512 387.309 34.512ZM408.305 41.064C408.305 41.544 408.273 41.976 408.209 42.36H398.489C398.569 43.32 398.905 44.072 399.497 44.616C400.089 45.16 400.817 45.432 401.681 45.432C402.929 45.432 403.817 44.896 404.345 43.824H407.969C407.585 45.104 406.849 46.16 405.761 46.992C404.673 47.808 403.337 48.216 401.753 48.216C400.473 48.216 399.321 47.936 398.297 47.376C397.289 46.8 396.497 45.992 395.921 44.952C395.361 43.912 395.081 42.712 395.081 41.352C395.081 39.976 395.361 38.768 395.921 37.728C396.481 36.688 397.265 35.888 398.273 35.328C399.281 34.768 400.441 34.488 401.753 34.488C403.017 34.488 404.145 34.76 405.137 35.304C406.145 35.848 406.921 36.624 407.465 37.632C408.025 38.624 408.305 39.768 408.305 41.064ZM404.825 40.104C404.809 39.24 404.497 38.552 403.889 38.04C403.281 37.512 402.537 37.248 401.657 37.248C400.825 37.248 400.121 37.504 399.545 38.016C398.985 38.512 398.641 39.208 398.513 40.104H404.825ZM427.27 34.512C428.902 34.512 430.214 35.016 431.206 36.024C432.214 37.016 432.718 38.408 432.718 40.2V48H429.358V40.656C429.358 39.616 429.094 38.824 428.566 38.28C428.038 37.72 427.318 37.44 426.406 37.44C425.494 37.44 424.766 37.72 424.222 38.28C423.694 38.824 423.43 39.616 423.43 40.656V48H420.07V40.656C420.07 39.616 419.806 38.824 419.278 38.28C418.75 37.72 418.03 37.44 417.118 37.44C416.19 37.44 415.454 37.72 414.91 38.28C414.382 38.824 414.118 39.616 414.118 40.656V48H410.758V34.704H414.118V36.312C414.55 35.752 415.102 35.312 415.774 34.992C416.462 34.672 417.214 34.512 418.03 34.512C419.07 34.512 419.998 34.736 420.814 35.184C421.63 35.616 422.262 36.24 422.71 37.056C423.142 36.288 423.766 35.672 424.582 35.208C425.414 34.744 426.31 34.512 427.27 34.512ZM437.61 33.12C437.018 33.12 436.522 32.936 436.122 32.568C435.738 32.184 435.546 31.712 435.546 31.152C435.546 30.592 435.738 30.128 436.122 29.76C436.522 29.376 437.018 29.184 437.61 29.184C438.202 29.184 438.69 29.376 439.074 29.76C439.474 30.128 439.674 30.592 439.674 31.152C439.674 31.712 439.474 32.184 439.074 32.568C438.69 32.936 438.202 33.12 437.61 33.12ZM439.266 34.704V48H435.906V34.704H439.266ZM445.946 30.24V48H442.586V30.24H445.946ZM450.969 33.12C450.377 33.12 449.881 32.936 449.481 32.568C449.097 32.184 448.905 31.712 448.905 31.152C448.905 30.592 449.097 30.128 449.481 29.76C449.881 29.376 450.377 29.184 450.969 29.184C451.561 29.184 452.049 29.376 452.433 29.76C452.833 30.128 453.033 30.592 453.033 31.152C453.033 31.712 452.833 32.184 452.433 32.568C452.049 32.936 451.561 33.12 450.969 33.12ZM452.625 34.704V48H449.265V34.704H452.625ZM463.433 34.512C464.441 34.512 465.337 34.736 466.121 35.184C466.905 35.616 467.513 36.264 467.945 37.128C468.393 37.976 468.617 39 468.617 40.2V48H465.257V40.656C465.257 39.6 464.993 38.792 464.465 38.232C463.937 37.656 463.217 37.368 462.305 37.368C461.377 37.368 460.641 37.656 460.097 38.232C459.569 38.792 459.305 39.6 459.305 40.656V48H455.945V30.24H459.305V36.36C459.737 35.784 460.313 35.336 461.033 35.016C461.753 34.68 462.553 34.512 463.433 34.512ZM485.403 48L480.891 42.336V48H477.531V30.24H480.891V40.344L485.355 34.704H489.723L483.867 41.376L489.771 48H485.403ZM490.683 41.304C490.683 39.96 490.947 38.768 491.475 37.728C492.019 36.688 492.747 35.888 493.659 35.328C494.587 34.768 495.619 34.488 496.755 34.488C497.747 34.488 498.611 34.688 499.347 35.088C500.099 35.488 500.699 35.992 501.147 36.6V34.704H504.531V48H501.147V46.056C500.715 46.68 500.115 47.2 499.347 47.616C498.595 48.016 497.723 48.216 496.731 48.216C495.611 48.216 494.587 47.928 493.659 47.352C492.747 46.776 492.019 45.968 491.475 44.928C490.947 43.872 490.683 42.664 490.683 41.304ZM501.147 41.352C501.147 40.536 500.987 39.84 500.667 39.264C500.347 38.672 499.915 38.224 499.371 37.92C498.827 37.6 498.243 37.44 497.619 37.44C496.995 37.44 496.419 37.592 495.891 37.896C495.363 38.2 494.931 38.648 494.595 39.24C494.275 39.816 494.115 40.504 494.115 41.304C494.115 42.104 494.275 42.808 494.595 43.416C494.931 44.008 495.363 44.464 495.891 44.784C496.435 45.104 497.011 45.264 497.619 45.264C498.243 45.264 498.827 45.112 499.371 44.808C499.915 44.488 500.347 44.04 500.667 43.464C500.987 42.872 501.147 42.168 501.147 41.352ZM515.18 34.512C516.764 34.512 518.044 35.016 519.02 36.024C519.996 37.016 520.484 38.408 520.484 40.2V48H517.124V40.656C517.124 39.6 516.86 38.792 516.332 38.232C515.804 37.656 515.084 37.368 514.172 37.368C513.244 37.368 512.508 37.656 511.964 38.232C511.436 38.792 511.172 39.6 511.172 40.656V48H507.812V34.704H511.172V36.36C511.62 35.784 512.188 35.336 512.876 35.016C513.58 34.68 514.348 34.512 515.18 34.512ZM522.815 41.304C522.815 39.96 523.079 38.768 523.607 37.728C524.151 36.688 524.887 35.888 525.815 35.328C526.743 34.768 527.775 34.488 528.911 34.488C529.775 34.488 530.599 34.68 531.383 35.064C532.167 35.432 532.791 35.928 533.255 36.552V30.24H536.663V48H533.255V46.032C532.839 46.688 532.255 47.216 531.503 47.616C530.751 48.016 529.879 48.216 528.887 48.216C527.767 48.216 526.743 47.928 525.815 47.352C524.887 46.776 524.151 45.968 523.607 44.928C523.079 43.872 522.815 42.664 522.815 41.304ZM533.279 41.352C533.279 40.536 533.119 39.84 532.799 39.264C532.479 38.672 532.047 38.224 531.503 37.92C530.959 37.6 530.375 37.44 529.751 37.44C529.127 37.44 528.551 37.592 528.023 37.896C527.495 38.2 527.063 38.648 526.727 39.24C526.407 39.816 526.247 40.504 526.247 41.304C526.247 42.104 526.407 42.808 526.727 43.416C527.063 44.008 527.495 44.464 528.023 44.784C528.567 45.104 529.143 45.264 529.751 45.264C530.375 45.264 530.959 45.112 531.503 44.808C532.047 44.488 532.479 44.04 532.799 43.464C533.119 42.872 533.279 42.168 533.279 41.352ZM541.649 33.12C541.057 33.12 540.561 32.936 540.161 32.568C539.777 32.184 539.585 31.712 539.585 31.152C539.585 30.592 539.777 30.128 540.161 29.76C540.561 29.376 541.057 29.184 541.649 29.184C542.241 29.184 542.729 29.376 543.113 29.76C543.513 30.128 543.713 30.592 543.713 31.152C543.713 31.712 543.513 32.184 543.113 32.568C542.729 32.936 542.241 33.12 541.649 33.12ZM543.305 34.704V48H539.945V34.704H543.305ZM545.761 41.304C545.761 39.96 546.025 38.768 546.553 37.728C547.097 36.688 547.833 35.888 548.761 35.328C549.689 34.768 550.721 34.488 551.857 34.488C552.721 34.488 553.545 34.68 554.329 35.064C555.113 35.432 555.737 35.928 556.201 36.552V30.24H559.609V48H556.201V46.032C555.785 46.688 555.201 47.216 554.449 47.616C553.697 48.016 552.825 48.216 551.833 48.216C550.713 48.216 549.689 47.928 548.761 47.352C547.833 46.776 547.097 45.968 546.553 44.928C546.025 43.872 545.761 42.664 545.761 41.304ZM556.225 41.352C556.225 40.536 556.065 39.84 555.745 39.264C555.425 38.672 554.993 38.224 554.449 37.92C553.905 37.6 553.321 37.44 552.697 37.44C552.073 37.44 551.497 37.592 550.969 37.896C550.441 38.2 550.009 38.648 549.673 39.24C549.353 39.816 549.193 40.504 549.193 41.304C549.193 42.104 549.353 42.808 549.673 43.416C550.009 44.008 550.441 44.464 550.969 44.784C551.513 45.104 552.089 45.264 552.697 45.264C553.321 45.264 553.905 45.112 554.449 44.808C554.993 44.488 555.425 44.04 555.745 43.464C556.065 42.872 556.225 42.168 556.225 41.352ZM562.026 41.304C562.026 39.96 562.29 38.768 562.818 37.728C563.362 36.688 564.09 35.888 565.002 35.328C565.93 34.768 566.962 34.488 568.098 34.488C569.09 34.488 569.954 34.688 570.69 35.088C571.442 35.488 572.042 35.992 572.49 36.6V34.704H575.874V48H572.49V46.056C572.058 46.68 571.458 47.2 570.69 47.616C569.938 48.016 569.066 48.216 568.074 48.216C566.954 48.216 565.93 47.928 565.002 47.352C564.09 46.776 563.362 45.968 562.818 44.928C562.29 43.872 562.026 42.664 562.026 41.304ZM572.49 41.352C572.49 40.536 572.33 39.84 572.01 39.264C571.69 38.672 571.258 38.224 570.714 37.92C570.17 37.6 569.586 37.44 568.962 37.44C568.338 37.44 567.762 37.592 567.234 37.896C566.706 38.2 566.274 38.648 565.938 39.24C565.618 39.816 565.458 40.504 565.458 41.304C565.458 42.104 565.618 42.808 565.938 43.416C566.274 44.008 566.706 44.464 567.234 44.784C567.778 45.104 568.354 45.264 568.962 45.264C569.586 45.264 570.17 45.112 570.714 44.808C571.258 44.488 571.69 44.04 572.01 43.464C572.33 42.872 572.49 42.168 572.49 41.352ZM583.068 37.464V43.896C583.068 44.344 583.172 44.672 583.38 44.88C583.604 45.072 583.972 45.168 584.484 45.168H586.044V48H583.932C581.1 48 579.684 46.624 579.684 43.872V37.464H578.1V34.704H579.684V31.416H583.068V34.704H586.044V37.464H583.068ZM84.792 74.304C84.792 72.96 85.056 71.768 85.584 70.728C86.128 69.688 86.864 68.888 87.792 68.328C88.72 67.768 89.752 67.488 90.888 67.488C91.752 67.488 92.576 67.68 93.36 68.064C94.144 68.432 94.768 68.928 95.232 69.552V63.24H98.64V81H95.232V79.032C94.816 79.688 94.232 80.216 93.48 80.616C92.728 81.016 91.856 81.216 90.864 81.216C89.744 81.216 88.72 80.928 87.792 80.352C86.864 79.776 86.128 78.968 85.584 77.928C85.056 76.872 84.792 75.664 84.792 74.304ZM95.256 74.352C95.256 73.536 95.096 72.84 94.776 72.264C94.456 71.672 94.024 71.224 93.48 70.92C92.936 70.6 92.352 70.44 91.728 70.44C91.104 70.44 90.528 70.592 90 70.896C89.472 71.2 89.04 71.648 88.704 72.24C88.384 72.816 88.224 73.504 88.224 74.304C88.224 75.104 88.384 75.808 88.704 76.416C89.04 77.008 89.472 77.464 90 77.784C90.544 78.104 91.12 78.264 91.728 78.264C92.352 78.264 92.936 78.112 93.48 77.808C94.024 77.488 94.456 77.04 94.776 76.464C95.096 75.872 95.256 75.168 95.256 74.352ZM101.058 74.304C101.058 72.96 101.322 71.768 101.85 70.728C102.394 69.688 103.122 68.888 104.034 68.328C104.962 67.768 105.994 67.488 107.13 67.488C108.122 67.488 108.986 67.688 109.722 68.088C110.474 68.488 111.074 68.992 111.522 69.6V67.704H114.906V81H111.522V79.056C111.09 79.68 110.49 80.2 109.722 80.616C108.97 81.016 108.098 81.216 107.106 81.216C105.986 81.216 104.962 80.928 104.034 80.352C103.122 79.776 102.394 78.968 101.85 77.928C101.322 76.872 101.058 75.664 101.058 74.304ZM111.522 74.352C111.522 73.536 111.362 72.84 111.042 72.264C110.722 71.672 110.29 71.224 109.746 70.92C109.202 70.6 108.618 70.44 107.994 70.44C107.37 70.44 106.794 70.592 106.266 70.896C105.738 71.2 105.306 71.648 104.97 72.24C104.65 72.816 104.49 73.504 104.49 74.304C104.49 75.104 104.65 75.808 104.97 76.416C105.306 77.008 105.738 77.464 106.266 77.784C106.81 78.104 107.386 78.264 107.994 78.264C108.618 78.264 109.202 78.112 109.746 77.808C110.29 77.488 110.722 77.04 111.042 76.464C111.362 75.872 111.522 75.168 111.522 74.352ZM125.555 67.512C127.139 67.512 128.419 68.016 129.395 69.024C130.371 70.016 130.859 71.408 130.859 73.2V81H127.499V73.656C127.499 72.6 127.235 71.792 126.707 71.232C126.179 70.656 125.459 70.368 124.547 70.368C123.619 70.368 122.883 70.656 122.339 71.232C121.811 71.792 121.547 72.6 121.547 73.656V81H118.187V67.704H121.547V69.36C121.995 68.784 122.563 68.336 123.251 68.016C123.955 67.68 124.723 67.512 125.555 67.512ZM156.285 67.512C157.917 67.512 159.229 68.016 160.221 69.024C161.229 70.016 161.733 71.408 161.733 73.2V81H158.373V73.656C158.373 72.616 158.109 71.824 157.581 71.28C157.053 70.72 156.333 70.44 155.421 70.44C154.509 70.44 153.781 70.72 153.237 71.28C152.709 71.824 152.445 72.616 152.445 73.656V81H149.085V73.656C149.085 72.616 148.821 71.824 148.293 71.28C147.765 70.72 147.045 70.44 146.133 70.44C145.205 70.44 144.469 70.72 143.925 71.28C143.397 71.824 143.133 72.616 143.133 73.656V81H139.773V67.704H143.133V69.312C143.565 68.752 144.117 68.312 144.789 67.992C145.477 67.672 146.229 67.512 147.045 67.512C148.085 67.512 149.013 67.736 149.829 68.184C150.645 68.616 151.277 69.24 151.725 70.056C152.157 69.288 152.781 68.672 153.597 68.208C154.429 67.744 155.325 67.512 156.285 67.512ZM177.282 74.064C177.282 74.544 177.25 74.976 177.186 75.36H167.466C167.546 76.32 167.882 77.072 168.474 77.616C169.066 78.16 169.794 78.432 170.658 78.432C171.906 78.432 172.794 77.896 173.322 76.824H176.946C176.562 78.104 175.826 79.16 174.738 79.992C173.65 80.808 172.314 81.216 170.73 81.216C169.45 81.216 168.298 80.936 167.274 80.376C166.266 79.8 165.474 78.992 164.898 77.952C164.338 76.912 164.058 75.712 164.058 74.352C164.058 72.976 164.338 71.768 164.898 70.728C165.458 69.688 166.242 68.888 167.25 68.328C168.258 67.768 169.418 67.488 170.73 67.488C171.994 67.488 173.122 67.76 174.114 68.304C175.122 68.848 175.898 69.624 176.442 70.632C177.002 71.624 177.282 72.768 177.282 74.064ZM173.802 73.104C173.786 72.24 173.474 71.552 172.866 71.04C172.258 70.512 171.514 70.248 170.634 70.248C169.802 70.248 169.098 70.504 168.522 71.016C167.962 71.512 167.618 72.208 167.49 73.104H173.802ZM196.246 67.512C197.878 67.512 199.19 68.016 200.182 69.024C201.19 70.016 201.694 71.408 201.694 73.2V81H198.334V73.656C198.334 72.616 198.07 71.824 197.542 71.28C197.014 70.72 196.294 70.44 195.382 70.44C194.47 70.44 193.742 70.72 193.198 71.28C192.67 71.824 192.406 72.616 192.406 73.656V81H189.046V73.656C189.046 72.616 188.782 71.824 188.254 71.28C187.726 70.72 187.006 70.44 186.094 70.44C185.166 70.44 184.43 70.72 183.886 71.28C183.358 71.824 183.094 72.616 183.094 73.656V81H179.734V67.704H183.094V69.312C183.526 68.752 184.078 68.312 184.75 67.992C185.438 67.672 186.19 67.512 187.006 67.512C188.046 67.512 188.974 67.736 189.79 68.184C190.606 68.616 191.238 69.24 191.686 70.056C192.118 69.288 192.742 68.672 193.558 68.208C194.39 67.744 195.286 67.512 196.246 67.512ZM208.243 69.648C208.675 69.008 209.267 68.488 210.019 68.088C210.787 67.688 211.659 67.488 212.635 67.488C213.771 67.488 214.795 67.768 215.707 68.328C216.635 68.888 217.363 69.688 217.891 70.728C218.435 71.752 218.707 72.944 218.707 74.304C218.707 75.664 218.435 76.872 217.891 77.928C217.363 78.968 216.635 79.776 215.707 80.352C214.795 80.928 213.771 81.216 212.635 81.216C211.643 81.216 210.771 81.024 210.019 80.64C209.283 80.24 208.691 79.728 208.243 79.104V81H204.883V63.24H208.243V69.648ZM215.275 74.304C215.275 73.504 215.107 72.816 214.771 72.24C214.451 71.648 214.019 71.2 213.475 70.896C212.947 70.592 212.371 70.44 211.747 70.44C211.139 70.44 210.563 70.6 210.019 70.92C209.491 71.224 209.059 71.672 208.723 72.264C208.403 72.856 208.243 73.552 208.243 74.352C208.243 75.152 208.403 75.848 208.723 76.44C209.059 77.032 209.491 77.488 210.019 77.808C210.563 78.112 211.139 78.264 211.747 78.264C212.371 78.264 212.947 78.104 213.475 77.784C214.019 77.464 214.451 77.008 214.771 76.416C215.107 75.824 215.275 75.12 215.275 74.304ZM220.284 74.304C220.284 72.96 220.548 71.768 221.076 70.728C221.62 69.688 222.348 68.888 223.26 68.328C224.188 67.768 225.22 67.488 226.356 67.488C227.348 67.488 228.212 67.688 228.948 68.088C229.7 68.488 230.3 68.992 230.748 69.6V67.704H234.132V81H230.748V79.056C230.316 79.68 229.716 80.2 228.948 80.616C228.196 81.016 227.324 81.216 226.332 81.216C225.212 81.216 224.188 80.928 223.26 80.352C222.348 79.776 221.62 78.968 221.076 77.928C220.548 76.872 220.284 75.664 220.284 74.304ZM230.748 74.352C230.748 73.536 230.588 72.84 230.268 72.264C229.948 71.672 229.516 71.224 228.972 70.92C228.428 70.6 227.844 70.44 227.22 70.44C226.596 70.44 226.02 70.592 225.492 70.896C224.964 71.2 224.532 71.648 224.196 72.24C223.876 72.816 223.716 73.504 223.716 74.304C223.716 75.104 223.876 75.808 224.196 76.416C224.532 77.008 224.964 77.464 225.492 77.784C226.036 78.104 226.612 78.264 227.22 78.264C227.844 78.264 228.428 78.112 228.972 77.808C229.516 77.488 229.948 77.04 230.268 76.464C230.588 75.872 230.748 75.168 230.748 74.352ZM236.55 74.352C236.55 72.976 236.83 71.776 237.39 70.752C237.95 69.712 238.726 68.912 239.718 68.352C240.71 67.776 241.846 67.488 243.126 67.488C244.774 67.488 246.134 67.904 247.206 68.736C248.294 69.552 249.022 70.704 249.39 72.192H245.766C245.574 71.616 245.246 71.168 244.782 70.848C244.334 70.512 243.774 70.344 243.102 70.344C242.142 70.344 241.382 70.696 240.822 71.4C240.262 72.088 239.982 73.072 239.982 74.352C239.982 75.616 240.262 76.6 240.822 77.304C241.382 77.992 242.142 78.336 243.102 78.336C244.462 78.336 245.35 77.728 245.766 76.512H249.39C249.022 77.952 248.294 79.096 247.206 79.944C246.118 80.792 244.758 81.216 243.126 81.216C241.846 81.216 240.71 80.936 239.718 80.376C238.726 79.8 237.95 79 237.39 77.976C236.83 76.936 236.55 75.728 236.55 74.352ZM250.987 74.304C250.987 72.96 251.251 71.768 251.779 70.728C252.323 69.688 253.051 68.888 253.963 68.328C254.891 67.768 255.923 67.488 257.059 67.488C258.051 67.488 258.915 67.688 259.651 68.088C260.403 68.488 261.003 68.992 261.451 69.6V67.704H264.835V81H261.451V79.056C261.019 79.68 260.419 80.2 259.651 80.616C258.899 81.016 258.027 81.216 257.035 81.216C255.915 81.216 254.891 80.928 253.963 80.352C253.051 79.776 252.323 78.968 251.779 77.928C251.251 76.872 250.987 75.664 250.987 74.304ZM261.451 74.352C261.451 73.536 261.291 72.84 260.971 72.264C260.651 71.672 260.219 71.224 259.675 70.92C259.131 70.6 258.547 70.44 257.923 70.44C257.299 70.44 256.723 70.592 256.195 70.896C255.667 71.2 255.235 71.648 254.899 72.24C254.579 72.816 254.419 73.504 254.419 74.304C254.419 75.104 254.579 75.808 254.899 76.416C255.235 77.008 255.667 77.464 256.195 77.784C256.739 78.104 257.315 78.264 257.923 78.264C258.547 78.264 259.131 78.112 259.675 77.808C260.219 77.488 260.651 77.04 260.971 76.464C261.291 75.872 261.451 75.168 261.451 74.352ZM279.38 77.904L282.74 67.704H286.316L281.396 81H277.316L272.42 67.704H276.02L279.38 77.904ZM289.907 66.12C289.315 66.12 288.819 65.936 288.419 65.568C288.035 65.184 287.843 64.712 287.843 64.152C287.843 63.592 288.035 63.128 288.419 62.76C288.819 62.376 289.315 62.184 289.907 62.184C290.499 62.184 290.987 62.376 291.371 62.76C291.771 63.128 291.971 63.592 291.971 64.152C291.971 64.712 291.771 65.184 291.371 65.568C290.987 65.936 290.499 66.12 289.907 66.12ZM291.563 67.704V81H288.203V67.704H291.563ZM299.971 81.216C298.883 81.216 297.907 81.024 297.043 80.64C296.179 80.24 295.491 79.704 294.979 79.032C294.483 78.36 294.211 77.616 294.163 76.8H297.547C297.611 77.312 297.859 77.736 298.291 78.072C298.739 78.408 299.291 78.576 299.947 78.576C300.587 78.576 301.083 78.448 301.435 78.192C301.803 77.936 301.987 77.608 301.987 77.208C301.987 76.776 301.763 76.456 301.315 76.248C300.883 76.024 300.187 75.784 299.227 75.528C298.235 75.288 297.419 75.04 296.779 74.784C296.155 74.528 295.611 74.136 295.147 73.608C294.699 73.08 294.475 72.368 294.475 71.472C294.475 70.736 294.683 70.064 295.099 69.456C295.531 68.848 296.139 68.368 296.923 68.016C297.723 67.664 298.659 67.488 299.731 67.488C301.315 67.488 302.579 67.888 303.523 68.688C304.467 69.472 304.987 70.536 305.083 71.88H301.867C301.819 71.352 301.595 70.936 301.195 70.632C300.811 70.312 300.291 70.152 299.635 70.152C299.027 70.152 298.555 70.264 298.219 70.488C297.899 70.712 297.739 71.024 297.739 71.424C297.739 71.872 297.963 72.216 298.411 72.456C298.859 72.68 299.555 72.912 300.499 73.152C301.459 73.392 302.251 73.64 302.875 73.896C303.499 74.152 304.035 74.552 304.483 75.096C304.947 75.624 305.187 76.328 305.203 77.208C305.203 77.976 304.987 78.664 304.555 79.272C304.139 79.88 303.531 80.36 302.731 80.712C301.947 81.048 301.027 81.216 299.971 81.216ZM309.665 66.12C309.073 66.12 308.577 65.936 308.177 65.568C307.793 65.184 307.601 64.712 307.601 64.152C307.601 63.592 307.793 63.128 308.177 62.76C308.577 62.376 309.073 62.184 309.665 62.184C310.257 62.184 310.745 62.376 311.129 62.76C311.529 63.128 311.729 63.592 311.729 64.152C311.729 64.712 311.529 65.184 311.129 65.568C310.745 65.936 310.257 66.12 309.665 66.12ZM311.321 67.704V81H307.961V67.704H311.321ZM336.871 67.512C338.503 67.512 339.815 68.016 340.807 69.024C341.815 70.016 342.319 71.408 342.319 73.2V81H338.959V73.656C338.959 72.616 338.695 71.824 338.167 71.28C337.639 70.72 336.919 70.44 336.007 70.44C335.095 70.44 334.367 70.72 333.823 71.28C333.295 71.824 333.031 72.616 333.031 73.656V81H329.671V73.656C329.671 72.616 329.407 71.824 328.879 71.28C328.351 70.72 327.631 70.44 326.719 70.44C325.791 70.44 325.055 70.72 324.511 71.28C323.983 71.824 323.719 72.616 323.719 73.656V81H320.359V67.704H323.719V69.312C324.151 68.752 324.703 68.312 325.375 67.992C326.063 67.672 326.815 67.512 327.631 67.512C328.671 67.512 329.599 67.736 330.415 68.184C331.231 68.616 331.863 69.24 332.311 70.056C332.743 69.288 333.367 68.672 334.183 68.208C335.015 67.744 335.911 67.512 336.871 67.512ZM347.212 66.12C346.62 66.12 346.124 65.936 345.724 65.568C345.34 65.184 345.148 64.712 345.148 64.152C345.148 63.592 345.34 63.128 345.724 62.76C346.124 62.376 346.62 62.184 347.212 62.184C347.804 62.184 348.292 62.376 348.676 62.76C349.076 63.128 349.276 63.592 349.276 64.152C349.276 64.712 349.076 65.184 348.676 65.568C348.292 65.936 347.804 66.12 347.212 66.12ZM348.868 67.704V81H345.508V67.704H348.868ZM357.275 81.216C356.187 81.216 355.211 81.024 354.347 80.64C353.483 80.24 352.795 79.704 352.283 79.032C351.787 78.36 351.515 77.616 351.467 76.8H354.851C354.915 77.312 355.163 77.736 355.595 78.072C356.043 78.408 356.595 78.576 357.251 78.576C357.891 78.576 358.387 78.448 358.739 78.192C359.107 77.936 359.291 77.608 359.291 77.208C359.291 76.776 359.067 76.456 358.619 76.248C358.187 76.024 357.491 75.784 356.531 75.528C355.539 75.288 354.723 75.04 354.083 74.784C353.459 74.528 352.915 74.136 352.451 73.608C352.003 73.08 351.779 72.368 351.779 71.472C351.779 70.736 351.987 70.064 352.403 69.456C352.835 68.848 353.443 68.368 354.227 68.016C355.027 67.664 355.963 67.488 357.035 67.488C358.619 67.488 359.883 67.888 360.827 68.688C361.771 69.472 362.291 70.536 362.387 71.88H359.171C359.123 71.352 358.899 70.936 358.499 70.632C358.115 70.312 357.595 70.152 356.939 70.152C356.331 70.152 355.859 70.264 355.523 70.488C355.203 70.712 355.043 71.024 355.043 71.424C355.043 71.872 355.267 72.216 355.715 72.456C356.163 72.68 356.859 72.912 357.803 73.152C358.763 73.392 359.555 73.64 360.179 73.896C360.803 74.152 361.339 74.552 361.787 75.096C362.251 75.624 362.491 76.328 362.507 77.208C362.507 77.976 362.291 78.664 361.859 79.272C361.443 79.88 360.835 80.36 360.035 80.712C359.251 81.048 358.331 81.216 357.275 81.216ZM366.969 66.12C366.377 66.12 365.881 65.936 365.481 65.568C365.097 65.184 364.905 64.712 364.905 64.152C364.905 63.592 365.097 63.128 365.481 62.76C365.881 62.376 366.377 62.184 366.969 62.184C367.561 62.184 368.049 62.376 368.433 62.76C368.833 63.128 369.033 63.592 369.033 64.152C369.033 64.712 368.833 65.184 368.433 65.568C368.049 65.936 367.561 66.12 366.969 66.12ZM368.625 67.704V81H365.265V67.704H368.625Z" fill="#0F46A5"/>
<path d="M33.592 37.184V21.92H60.184V92H43.096V37.184H33.592Z" fill="#307DFB" fill-opacity="0.54"/>
<defs>
<filter id="filter0_d_76:153" x="0.5" y="0.5" width="666" height="123" filterUnits="userSpaceOnUse" color-interpolation-filters="sRGB">
<feFlood flood-opacity="0" result="BackgroundImageFix"/>
<feColorMatrix in="SourceAlpha" type="matrix" values="0 0 0 0 0 0 0 0 0 0 0 0 0 0 0 0 0 0 127 0" result="hardAlpha"/>
<feMorphology radius="2" operator="dilate" in="SourceAlpha" result="effect1_dropShadow_76:153"/>
<feOffset dy="4"/>
<feGaussianBlur stdDeviation="2"/>
<feComposite in2="hardAlpha" operator="out"/>
<feColorMatrix type="matrix" values="0 0 0 0 0 0 0 0 0 0 0 0 0 0 0 0 0 0 0.5 0"/>
<feBlend mode="normal" in2="BackgroundImageFix" result="effect1_dropShadow_76:153"/>
<feBlend mode="normal" in="SourceGraphic" in2="effect1_dropShadow_76:153" result="shape"/>
</filter>
</defs>
</svg>
