<svg width="667" height="161" viewBox="0 0 667 161" fill="none" xmlns="http://www.w3.org/2000/svg">
<g filter="url(#filter0_d_76:154)">
<rect x="7" y="3" width="653" height="147" rx="20" stroke="#0F46A5" shape-rendering="crispEdges"/>
</g>
<path d="M103.92 49.248V66H100.56V55.104L96.072 66H93.528L89.016 55.104V66H85.656V49.248H89.472L94.8 61.704L100.128 49.248H103.92ZM119.602 59.064C119.602 59.544 119.57 59.976 119.506 60.36H109.786C109.866 61.32 110.202 62.072 110.794 62.616C111.386 63.16 112.114 63.432 112.978 63.432C114.226 63.432 115.114 62.896 115.642 61.824H119.266C118.882 63.104 118.146 64.16 117.058 64.992C115.97 65.808 114.634 66.216 113.05 66.216C111.77 66.216 110.618 65.936 109.594 65.376C108.586 64.8 107.794 63.992 107.218 62.952C106.658 61.912 106.378 60.712 106.378 59.352C106.378 57.976 106.658 56.768 107.218 55.728C107.778 54.688 108.562 53.888 109.57 53.328C110.578 52.768 111.738 52.488 113.05 52.488C114.314 52.488 115.442 52.76 116.434 53.304C117.442 53.848 118.218 54.624 118.762 55.632C119.322 56.624 119.602 57.768 119.602 59.064ZM116.122 58.104C116.106 57.24 115.794 56.552 115.186 56.04C114.578 55.512 113.834 55.248 112.954 55.248C112.122 55.248 111.418 55.504 110.842 56.016C110.282 56.512 109.938 57.208 109.81 58.104H116.122ZM138.566 52.512C140.198 52.512 141.51 53.016 142.502 54.024C143.51 55.016 144.014 56.408 144.014 58.2V66H140.654V58.656C140.654 57.616 140.39 56.824 139.862 56.28C139.334 55.72 138.614 55.44 137.702 55.44C136.79 55.44 136.062 55.72 135.518 56.28C134.99 56.824 134.726 57.616 134.726 58.656V66H131.366V58.656C131.366 57.616 131.102 56.824 130.574 56.28C130.046 55.72 129.326 55.44 128.414 55.44C127.486 55.44 126.75 55.72 126.206 56.28C125.678 56.824 125.414 57.616 125.414 58.656V66H122.054V52.704H125.414V54.312C125.846 53.752 126.398 53.312 127.07 52.992C127.758 52.672 128.51 52.512 129.326 52.512C130.366 52.512 131.294 52.736 132.11 53.184C132.926 53.616 133.558 54.24 134.006 55.056C134.438 54.288 135.062 53.672 135.878 53.208C136.71 52.744 137.606 52.512 138.566 52.512ZM150.563 54.648C150.995 54.008 151.587 53.488 152.339 53.088C153.107 52.688 153.979 52.488 154.955 52.488C156.091 52.488 157.115 52.768 158.027 53.328C158.955 53.888 159.683 54.688 160.211 55.728C160.755 56.752 161.027 57.944 161.027 59.304C161.027 60.664 160.755 61.872 160.211 62.928C159.683 63.968 158.955 64.776 158.027 65.352C157.115 65.928 156.091 66.216 154.955 66.216C153.963 66.216 153.091 66.024 152.339 65.64C151.603 65.24 151.011 64.728 150.563 64.104V66H147.203V48.24H150.563V54.648ZM157.595 59.304C157.595 58.504 157.427 57.816 157.091 57.24C156.771 56.648 156.339 56.2 155.795 55.896C155.267 55.592 154.691 55.44 154.067 55.44C153.459 55.44 152.883 55.6 152.339 55.92C151.811 56.224 151.379 56.672 151.043 57.264C150.723 57.856 150.563 58.552 150.563 59.352C150.563 60.152 150.723 60.848 151.043 61.44C151.379 62.032 151.811 62.488 152.339 62.808C152.883 63.112 153.459 63.264 154.067 63.264C154.691 63.264 155.267 63.104 155.795 62.784C156.339 62.464 156.771 62.008 157.091 61.416C157.427 60.824 157.595 60.12 157.595 59.304ZM162.604 59.304C162.604 57.96 162.868 56.768 163.396 55.728C163.941 54.688 164.669 53.888 165.581 53.328C166.509 52.768 167.541 52.488 168.677 52.488C169.669 52.488 170.533 52.688 171.269 53.088C172.021 53.488 172.621 53.992 173.069 54.6V52.704H176.453V66H173.069V64.056C172.637 64.68 172.037 65.2 171.269 65.616C170.517 66.016 169.645 66.216 168.653 66.216C167.533 66.216 166.509 65.928 165.581 65.352C164.669 64.776 163.941 63.968 163.396 62.928C162.868 61.872 162.604 60.664 162.604 59.304ZM173.069 59.352C173.069 58.536 172.909 57.84 172.589 57.264C172.269 56.672 171.837 56.224 171.293 55.92C170.749 55.6 170.165 55.44 169.541 55.44C168.917 55.44 168.341 55.592 167.812 55.896C167.285 56.2 166.853 56.648 166.517 57.24C166.197 57.816 166.037 58.504 166.037 59.304C166.037 60.104 166.197 60.808 166.517 61.416C166.853 62.008 167.285 62.464 167.812 62.784C168.357 63.104 168.933 63.264 169.541 63.264C170.165 63.264 170.749 63.112 171.293 62.808C171.837 62.488 172.269 62.04 172.589 61.464C172.909 60.872 173.069 60.168 173.069 59.352ZM178.87 59.352C178.87 57.976 179.15 56.776 179.71 55.752C180.27 54.712 181.046 53.912 182.038 53.352C183.03 52.776 184.166 52.488 185.446 52.488C187.094 52.488 188.454 52.904 189.526 53.736C190.614 54.552 191.342 55.704 191.71 57.192H188.086C187.894 56.616 187.566 56.168 187.102 55.848C186.654 55.512 186.094 55.344 185.422 55.344C184.462 55.344 183.702 55.696 183.142 56.4C182.582 57.088 182.302 58.072 182.302 59.352C182.302 60.616 182.582 61.6 183.142 62.304C183.702 62.992 184.462 63.336 185.422 63.336C186.782 63.336 187.67 62.728 188.086 61.512H191.71C191.342 62.952 190.614 64.096 189.526 64.944C188.438 65.792 187.078 66.216 185.446 66.216C184.166 66.216 183.03 65.936 182.038 65.376C181.046 64.8 180.27 64 179.71 62.976C179.15 61.936 178.87 60.728 178.87 59.352ZM193.308 59.304C193.308 57.96 193.572 56.768 194.1 55.728C194.644 54.688 195.372 53.888 196.284 53.328C197.212 52.768 198.244 52.488 199.38 52.488C200.372 52.488 201.236 52.688 201.972 53.088C202.724 53.488 203.324 53.992 203.772 54.6V52.704H207.156V66H203.772V64.056C203.34 64.68 202.74 65.2 201.972 65.616C201.22 66.016 200.348 66.216 199.356 66.216C198.236 66.216 197.212 65.928 196.284 65.352C195.372 64.776 194.644 63.968 194.1 62.928C193.572 61.872 193.308 60.664 193.308 59.304ZM203.772 59.352C203.772 58.536 203.612 57.84 203.292 57.264C202.972 56.672 202.54 56.224 201.996 55.92C201.452 55.6 200.868 55.44 200.244 55.44C199.62 55.44 199.044 55.592 198.516 55.896C197.988 56.2 197.556 56.648 197.22 57.24C196.9 57.816 196.74 58.504 196.74 59.304C196.74 60.104 196.9 60.808 197.22 61.416C197.556 62.008 197.988 62.464 198.516 62.784C199.06 63.104 199.636 63.264 200.244 63.264C200.868 63.264 201.452 63.112 201.996 62.808C202.54 62.488 202.972 62.04 203.292 61.464C203.612 60.872 203.772 60.168 203.772 59.352ZM221.7 62.904L225.06 52.704H228.636L223.716 66H219.636L214.74 52.704H218.34L221.7 62.904ZM232.227 51.12C231.635 51.12 231.139 50.936 230.739 50.568C230.355 50.184 230.163 49.712 230.163 49.152C230.163 48.592 230.355 48.128 230.739 47.76C231.139 47.376 231.635 47.184 232.227 47.184C232.819 47.184 233.307 47.376 233.691 47.76C234.091 48.128 234.291 48.592 234.291 49.152C234.291 49.712 234.091 50.184 233.691 50.568C233.307 50.936 232.819 51.12 232.227 51.12ZM233.883 52.704V66H230.523V52.704H233.883ZM242.291 66.216C241.203 66.216 240.227 66.024 239.363 65.64C238.499 65.24 237.811 64.704 237.299 64.032C236.803 63.36 236.531 62.616 236.483 61.8H239.867C239.931 62.312 240.179 62.736 240.611 63.072C241.059 63.408 241.611 63.576 242.267 63.576C242.907 63.576 243.403 63.448 243.755 63.192C244.123 62.936 244.307 62.608 244.307 62.208C244.307 61.776 244.083 61.456 243.635 61.248C243.203 61.024 242.507 60.784 241.547 60.528C240.555 60.288 239.739 60.04 239.099 59.784C238.475 59.528 237.931 59.136 237.467 58.608C237.019 58.08 236.795 57.368 236.795 56.472C236.795 55.736 237.003 55.064 237.419 54.456C237.851 53.848 238.459 53.368 239.243 53.016C240.043 52.664 240.979 52.488 242.051 52.488C243.635 52.488 244.899 52.888 245.843 53.688C246.787 54.472 247.307 55.536 247.403 56.88H244.187C244.139 56.352 243.915 55.936 243.515 55.632C243.131 55.312 242.611 55.152 241.955 55.152C241.347 55.152 240.875 55.264 240.539 55.488C240.219 55.712 240.059 56.024 240.059 56.424C240.059 56.872 240.283 57.216 240.731 57.456C241.179 57.68 241.875 57.912 242.819 58.152C243.779 58.392 244.571 58.64 245.195 58.896C245.819 59.152 246.355 59.552 246.803 60.096C247.267 60.624 247.507 61.328 247.523 62.208C247.523 62.976 247.307 63.664 246.875 64.272C246.459 64.88 245.851 65.36 245.051 65.712C244.267 66.048 243.347 66.216 242.291 66.216ZM251.985 51.12C251.393 51.12 250.897 50.936 250.497 50.568C250.113 50.184 249.921 49.712 249.921 49.152C249.921 48.592 250.113 48.128 250.497 47.76C250.897 47.376 251.393 47.184 251.985 47.184C252.577 47.184 253.065 47.376 253.449 47.76C253.849 48.128 254.049 48.592 254.049 49.152C254.049 49.712 253.849 50.184 253.449 50.568C253.065 50.936 252.577 51.12 251.985 51.12ZM253.641 52.704V66H250.281V52.704H253.641ZM261.815 59.304C261.815 57.96 262.079 56.768 262.607 55.728C263.151 54.688 263.887 53.888 264.815 53.328C265.743 52.768 266.775 52.488 267.911 52.488C268.775 52.488 269.599 52.68 270.383 53.064C271.167 53.432 271.791 53.928 272.255 54.552V48.24H275.663V66H272.255V64.032C271.839 64.688 271.255 65.216 270.503 65.616C269.751 66.016 268.879 66.216 267.887 66.216C266.767 66.216 265.743 65.928 264.815 65.352C263.887 64.776 263.151 63.968 262.607 62.928C262.079 61.872 261.815 60.664 261.815 59.304ZM272.279 59.352C272.279 58.536 272.119 57.84 271.799 57.264C271.479 56.672 271.047 56.224 270.503 55.92C269.959 55.6 269.375 55.44 268.751 55.44C268.127 55.44 267.551 55.592 267.023 55.896C266.495 56.2 266.063 56.648 265.727 57.24C265.407 57.816 265.247 58.504 265.247 59.304C265.247 60.104 265.407 60.808 265.727 61.416C266.063 62.008 266.495 62.464 267.023 62.784C267.567 63.104 268.143 63.264 268.751 63.264C269.375 63.264 269.959 63.112 270.503 62.808C271.047 62.488 271.479 62.04 271.799 61.464C272.119 60.872 272.279 60.168 272.279 59.352ZM278.081 59.304C278.081 57.96 278.345 56.768 278.873 55.728C279.417 54.688 280.145 53.888 281.057 53.328C281.985 52.768 283.017 52.488 284.153 52.488C285.145 52.488 286.009 52.688 286.745 53.088C287.497 53.488 288.097 53.992 288.545 54.6V52.704H291.929V66H288.545V64.056C288.113 64.68 287.513 65.2 286.745 65.616C285.993 66.016 285.121 66.216 284.129 66.216C283.009 66.216 281.985 65.928 281.057 65.352C280.145 64.776 279.417 63.968 278.873 62.928C278.345 61.872 278.081 60.664 278.081 59.304ZM288.545 59.352C288.545 58.536 288.385 57.84 288.065 57.264C287.745 56.672 287.313 56.224 286.769 55.92C286.225 55.6 285.641 55.44 285.017 55.44C284.393 55.44 283.817 55.592 283.289 55.896C282.761 56.2 282.329 56.648 281.993 57.24C281.673 57.816 281.513 58.504 281.513 59.304C281.513 60.104 281.673 60.808 281.993 61.416C282.329 62.008 282.761 62.464 283.289 62.784C283.833 63.104 284.409 63.264 285.017 63.264C285.641 63.264 286.225 63.112 286.769 62.808C287.313 62.488 287.745 62.04 288.065 61.464C288.385 60.872 288.545 60.168 288.545 59.352ZM302.579 52.512C304.163 52.512 305.443 53.016 306.419 54.024C307.395 55.016 307.883 56.408 307.883 58.2V66H304.523V58.656C304.523 57.6 304.259 56.792 303.731 56.232C303.203 55.656 302.483 55.368 301.571 55.368C300.643 55.368 299.907 55.656 299.363 56.232C298.835 56.792 298.571 57.6 298.571 58.656V66H295.211V52.704H298.571V54.36C299.019 53.784 299.587 53.336 300.275 53.016C300.979 52.68 301.747 52.512 302.579 52.512ZM333.309 52.512C334.941 52.512 336.253 53.016 337.245 54.024C338.253 55.016 338.757 56.408 338.757 58.2V66H335.397V58.656C335.397 57.616 335.133 56.824 334.605 56.28C334.077 55.72 333.357 55.44 332.445 55.44C331.533 55.44 330.805 55.72 330.261 56.28C329.733 56.824 329.469 57.616 329.469 58.656V66H326.109V58.656C326.109 57.616 325.845 56.824 325.317 56.28C324.789 55.72 324.069 55.44 323.157 55.44C322.229 55.44 321.493 55.72 320.949 56.28C320.421 56.824 320.157 57.616 320.157 58.656V66H316.797V52.704H320.157V54.312C320.589 53.752 321.141 53.312 321.813 52.992C322.501 52.672 323.253 52.512 324.069 52.512C325.109 52.512 326.037 52.736 326.853 53.184C327.669 53.616 328.301 54.24 328.749 55.056C329.181 54.288 329.805 53.672 330.621 53.208C331.453 52.744 332.349 52.512 333.309 52.512ZM343.649 51.12C343.057 51.12 342.561 50.936 342.161 50.568C341.777 50.184 341.585 49.712 341.585 49.152C341.585 48.592 341.777 48.128 342.161 47.76C342.561 47.376 343.057 47.184 343.649 47.184C344.241 47.184 344.729 47.376 345.113 47.76C345.513 48.128 345.713 48.592 345.713 49.152C345.713 49.712 345.513 50.184 345.113 50.568C344.729 50.936 344.241 51.12 343.649 51.12ZM345.305 52.704V66H341.945V52.704H345.305ZM353.713 66.216C352.625 66.216 351.649 66.024 350.785 65.64C349.921 65.24 349.233 64.704 348.721 64.032C348.225 63.36 347.953 62.616 347.905 61.8H351.289C351.353 62.312 351.601 62.736 352.033 63.072C352.481 63.408 353.033 63.576 353.689 63.576C354.329 63.576 354.825 63.448 355.177 63.192C355.545 62.936 355.729 62.608 355.729 62.208C355.729 61.776 355.505 61.456 355.057 61.248C354.625 61.024 353.929 60.784 352.969 60.528C351.977 60.288 351.161 60.04 350.521 59.784C349.897 59.528 349.353 59.136 348.889 58.608C348.441 58.08 348.217 57.368 348.217 56.472C348.217 55.736 348.425 55.064 348.841 54.456C349.273 53.848 349.881 53.368 350.665 53.016C351.465 52.664 352.401 52.488 353.473 52.488C355.057 52.488 356.321 52.888 357.265 53.688C358.209 54.472 358.729 55.536 358.825 56.88H355.609C355.561 56.352 355.337 55.936 354.937 55.632C354.553 55.312 354.033 55.152 353.377 55.152C352.769 55.152 352.297 55.264 351.961 55.488C351.641 55.712 351.481 56.024 351.481 56.424C351.481 56.872 351.705 57.216 352.153 57.456C352.601 57.68 353.297 57.912 354.241 58.152C355.201 58.392 355.993 58.64 356.617 58.896C357.241 59.152 357.777 59.552 358.225 60.096C358.689 60.624 358.929 61.328 358.945 62.208C358.945 62.976 358.729 63.664 358.297 64.272C357.881 64.88 357.273 65.36 356.473 65.712C355.689 66.048 354.769 66.216 353.713 66.216ZM363.407 51.12C362.815 51.12 362.319 50.936 361.919 50.568C361.535 50.184 361.343 49.712 361.343 49.152C361.343 48.592 361.535 48.128 361.919 47.76C362.319 47.376 362.815 47.184 363.407 47.184C363.999 47.184 364.487 47.376 364.871 47.76C365.271 48.128 365.471 48.592 365.471 49.152C365.471 49.712 365.271 50.184 364.871 50.568C364.487 50.936 363.999 51.12 363.407 51.12ZM365.063 52.704V66H361.703V52.704H365.063ZM379.189 66.216C378.101 66.216 377.125 66.024 376.261 65.64C375.397 65.24 374.709 64.704 374.197 64.032C373.701 63.36 373.429 62.616 373.381 61.8H376.765C376.829 62.312 377.077 62.736 377.509 63.072C377.957 63.408 378.509 63.576 379.165 63.576C379.805 63.576 380.301 63.448 380.653 63.192C381.021 62.936 381.205 62.608 381.205 62.208C381.205 61.776 380.981 61.456 380.533 61.248C380.101 61.024 379.405 60.784 378.445 60.528C377.453 60.288 376.637 60.04 375.997 59.784C375.373 59.528 374.829 59.136 374.365 58.608C373.917 58.08 373.693 57.368 373.693 56.472C373.693 55.736 373.901 55.064 374.317 54.456C374.749 53.848 375.357 53.368 376.141 53.016C376.941 52.664 377.877 52.488 378.949 52.488C380.533 52.488 381.797 52.888 382.741 53.688C383.685 54.472 384.205 55.536 384.301 56.88H381.085C381.037 56.352 380.813 55.936 380.413 55.632C380.029 55.312 379.509 55.152 378.853 55.152C378.245 55.152 377.773 55.264 377.437 55.488C377.117 55.712 376.957 56.024 376.957 56.424C376.957 56.872 377.181 57.216 377.629 57.456C378.077 57.68 378.773 57.912 379.717 58.152C380.677 58.392 381.469 58.64 382.093 58.896C382.717 59.152 383.253 59.552 383.701 60.096C384.165 60.624 384.405 61.328 384.421 62.208C384.421 62.976 384.205 63.664 383.773 64.272C383.357 64.88 382.749 65.36 381.949 65.712C381.165 66.048 380.245 66.216 379.189 66.216ZM399.539 59.064C399.539 59.544 399.507 59.976 399.443 60.36H389.723C389.803 61.32 390.139 62.072 390.731 62.616C391.323 63.16 392.051 63.432 392.915 63.432C394.163 63.432 395.051 62.896 395.579 61.824H399.203C398.819 63.104 398.083 64.16 396.995 64.992C395.907 65.808 394.571 66.216 392.987 66.216C391.707 66.216 390.555 65.936 389.531 65.376C388.523 64.8 387.731 63.992 387.155 62.952C386.595 61.912 386.315 60.712 386.315 59.352C386.315 57.976 386.595 56.768 387.155 55.728C387.715 54.688 388.499 53.888 389.507 53.328C390.515 52.768 391.675 52.488 392.987 52.488C394.251 52.488 395.379 52.76 396.371 53.304C397.379 53.848 398.155 54.624 398.699 55.632C399.259 56.624 399.539 57.768 399.539 59.064ZM396.059 58.104C396.043 57.24 395.731 56.552 395.123 56.04C394.515 55.512 393.771 55.248 392.891 55.248C392.059 55.248 391.355 55.504 390.779 56.016C390.219 56.512 389.875 57.208 389.747 58.104H396.059ZM405.904 55.464V61.896C405.904 62.344 406.008 62.672 406.216 62.88C406.44 63.072 406.808 63.168 407.32 63.168H408.88V66H406.768C403.936 66 402.52 64.624 402.52 61.872V55.464H400.936V52.704H402.52V49.416H405.904V52.704H408.88V55.464H405.904ZM413.001 51.12C412.409 51.12 411.913 50.936 411.513 50.568C411.129 50.184 410.937 49.712 410.937 49.152C410.937 48.592 411.129 48.128 411.513 47.76C411.913 47.376 412.409 47.184 413.001 47.184C413.593 47.184 414.081 47.376 414.465 47.76C414.865 48.128 415.065 48.592 415.065 49.152C415.065 49.712 414.865 50.184 414.465 50.568C414.081 50.936 413.593 51.12 413.001 51.12ZM414.657 52.704V66H411.297V52.704H414.657ZM417.112 59.304C417.112 57.96 417.376 56.768 417.904 55.728C418.448 54.688 419.176 53.888 420.088 53.328C421.016 52.768 422.048 52.488 423.184 52.488C424.176 52.488 425.04 52.688 425.776 53.088C426.528 53.488 427.128 53.992 427.576 54.6V52.704H430.96V66H427.576V64.056C427.144 64.68 426.544 65.2 425.776 65.616C425.024 66.016 424.152 66.216 423.16 66.216C422.04 66.216 421.016 65.928 420.088 65.352C419.176 64.776 418.448 63.968 417.904 62.928C417.376 61.872 417.112 60.664 417.112 59.304ZM427.576 59.352C427.576 58.536 427.416 57.84 427.096 57.264C426.776 56.672 426.344 56.224 425.8 55.92C425.256 55.6 424.672 55.44 424.048 55.44C423.424 55.44 422.848 55.592 422.32 55.896C421.792 56.2 421.36 56.648 421.024 57.24C420.704 57.816 420.544 58.504 420.544 59.304C420.544 60.104 420.704 60.808 421.024 61.416C421.36 62.008 421.792 62.464 422.32 62.784C422.864 63.104 423.44 63.264 424.048 63.264C424.672 63.264 425.256 63.112 425.8 62.808C426.344 62.488 426.776 62.04 427.096 61.464C427.416 60.872 427.576 60.168 427.576 59.352ZM437.602 54.624C438.034 54.016 438.626 53.512 439.378 53.112C440.146 52.696 441.018 52.488 441.994 52.488C443.13 52.488 444.154 52.768 445.066 53.328C445.994 53.888 446.722 54.688 447.25 55.728C447.794 56.752 448.066 57.944 448.066 59.304C448.066 60.664 447.794 61.872 447.25 62.928C446.722 63.968 445.994 64.776 445.066 65.352C444.154 65.928 443.13 66.216 441.994 66.216C441.018 66.216 440.154 66.016 439.402 65.616C438.666 65.216 438.066 64.712 437.602 64.104V72.336H434.242V52.704H437.602V54.624ZM444.634 59.304C444.634 58.504 444.466 57.816 444.13 57.24C443.81 56.648 443.378 56.2 442.834 55.896C442.306 55.592 441.73 55.44 441.106 55.44C440.498 55.44 439.922 55.6 439.378 55.92C438.85 56.224 438.418 56.672 438.082 57.264C437.762 57.856 437.602 58.552 437.602 59.352C437.602 60.152 437.762 60.848 438.082 61.44C438.418 62.032 438.85 62.488 439.378 62.808C439.922 63.112 440.498 63.264 441.106 63.264C441.73 63.264 442.306 63.104 442.834 62.784C443.378 62.464 443.81 62.008 444.13 61.416C444.466 60.824 444.634 60.12 444.634 59.304ZM464.098 66L459.586 60.336V66H456.226V48.24H459.586V58.344L464.05 52.704H468.418L462.562 59.376L468.466 66H464.098ZM469.378 59.304C469.378 57.96 469.642 56.768 470.17 55.728C470.714 54.688 471.442 53.888 472.354 53.328C473.282 52.768 474.314 52.488 475.45 52.488C476.442 52.488 477.306 52.688 478.042 53.088C478.794 53.488 479.394 53.992 479.842 54.6V52.704H483.226V66H479.842V64.056C479.41 64.68 478.81 65.2 478.042 65.616C477.29 66.016 476.418 66.216 475.426 66.216C474.306 66.216 473.282 65.928 472.354 65.352C471.442 64.776 470.714 63.968 470.17 62.928C469.642 61.872 469.378 60.664 469.378 59.304ZM479.842 59.352C479.842 58.536 479.682 57.84 479.362 57.264C479.042 56.672 478.61 56.224 478.066 55.92C477.522 55.6 476.938 55.44 476.314 55.44C475.69 55.44 475.114 55.592 474.586 55.896C474.058 56.2 473.626 56.648 473.29 57.24C472.97 57.816 472.81 58.504 472.81 59.304C472.81 60.104 472.97 60.808 473.29 61.416C473.626 62.008 474.058 62.464 474.586 62.784C475.13 63.104 475.706 63.264 476.314 63.264C476.938 63.264 477.522 63.112 478.066 62.808C478.61 62.488 479.042 62.04 479.362 61.464C479.682 60.872 479.842 60.168 479.842 59.352ZM493.876 52.512C495.46 52.512 496.74 53.016 497.716 54.024C498.692 55.016 499.18 56.408 499.18 58.2V66H495.82V58.656C495.82 57.6 495.556 56.792 495.028 56.232C494.5 55.656 493.78 55.368 492.868 55.368C491.94 55.368 491.204 55.656 490.66 56.232C490.132 56.792 489.868 57.6 489.868 58.656V66H486.508V52.704H489.868V54.36C490.316 53.784 490.884 53.336 491.572 53.016C492.276 52.68 493.044 52.512 493.876 52.512ZM501.511 59.304C501.511 57.96 501.775 56.768 502.303 55.728C502.847 54.688 503.583 53.888 504.511 53.328C505.439 52.768 506.471 52.488 507.607 52.488C508.471 52.488 509.295 52.68 510.079 53.064C510.863 53.432 511.487 53.928 511.951 54.552V48.24H515.359V66H511.951V64.032C511.535 64.688 510.951 65.216 510.199 65.616C509.447 66.016 508.575 66.216 507.583 66.216C506.463 66.216 505.439 65.928 504.511 65.352C503.583 64.776 502.847 63.968 502.303 62.928C501.775 61.872 501.511 60.664 501.511 59.304ZM511.975 59.352C511.975 58.536 511.815 57.84 511.495 57.264C511.175 56.672 510.743 56.224 510.199 55.92C509.655 55.6 509.071 55.44 508.447 55.44C507.823 55.44 507.247 55.592 506.719 55.896C506.191 56.2 505.759 56.648 505.423 57.24C505.103 57.816 504.943 58.504 504.943 59.304C504.943 60.104 505.103 60.808 505.423 61.416C505.759 62.008 506.191 62.464 506.719 62.784C507.263 63.104 507.839 63.264 508.447 63.264C509.071 63.264 509.655 63.112 510.199 62.808C510.743 62.488 511.175 62.04 511.495 61.464C511.815 60.872 511.975 60.168 511.975 59.352ZM520.344 51.12C519.752 51.12 519.256 50.936 518.856 50.568C518.472 50.184 518.28 49.712 518.28 49.152C518.28 48.592 518.472 48.128 518.856 47.76C519.256 47.376 519.752 47.184 520.344 47.184C520.936 47.184 521.424 47.376 521.808 47.76C522.208 48.128 522.408 48.592 522.408 49.152C522.408 49.712 522.208 50.184 521.808 50.568C521.424 50.936 520.936 51.12 520.344 51.12ZM522 52.704V66H518.64V52.704H522ZM524.456 59.304C524.456 57.96 524.72 56.768 525.248 55.728C525.792 54.688 526.528 53.888 527.456 53.328C528.384 52.768 529.416 52.488 530.552 52.488C531.416 52.488 532.24 52.68 533.024 53.064C533.808 53.432 534.432 53.928 534.896 54.552V48.24H538.304V66H534.896V64.032C534.48 64.688 533.896 65.216 533.144 65.616C532.392 66.016 531.52 66.216 530.528 66.216C529.408 66.216 528.384 65.928 527.456 65.352C526.528 64.776 525.792 63.968 525.248 62.928C524.72 61.872 524.456 60.664 524.456 59.304ZM534.92 59.352C534.92 58.536 534.76 57.84 534.44 57.264C534.12 56.672 533.688 56.224 533.144 55.92C532.6 55.6 532.016 55.44 531.392 55.44C530.768 55.44 530.192 55.592 529.664 55.896C529.136 56.2 528.704 56.648 528.368 57.24C528.048 57.816 527.888 58.504 527.888 59.304C527.888 60.104 528.048 60.808 528.368 61.416C528.704 62.008 529.136 62.464 529.664 62.784C530.208 63.104 530.784 63.264 531.392 63.264C532.016 63.264 532.6 63.112 533.144 62.808C533.688 62.488 534.12 62.04 534.44 61.464C534.76 60.872 534.92 60.168 534.92 59.352ZM540.722 59.304C540.722 57.96 540.986 56.768 541.514 55.728C542.058 54.688 542.786 53.888 543.698 53.328C544.626 52.768 545.658 52.488 546.794 52.488C547.786 52.488 548.65 52.688 549.386 53.088C550.138 53.488 550.738 53.992 551.186 54.6V52.704H554.57V66H551.186V64.056C550.754 64.68 550.154 65.2 549.386 65.616C548.634 66.016 547.762 66.216 546.77 66.216C545.65 66.216 544.626 65.928 543.698 65.352C542.786 64.776 542.058 63.968 541.514 62.928C540.986 61.872 540.722 60.664 540.722 59.304ZM551.186 59.352C551.186 58.536 551.026 57.84 550.706 57.264C550.386 56.672 549.954 56.224 549.41 55.92C548.866 55.6 548.282 55.44 547.658 55.44C547.034 55.44 546.458 55.592 545.93 55.896C545.402 56.2 544.97 56.648 544.634 57.24C544.314 57.816 544.154 58.504 544.154 59.304C544.154 60.104 544.314 60.808 544.634 61.416C544.97 62.008 545.402 62.464 545.93 62.784C546.474 63.104 547.05 63.264 547.658 63.264C548.282 63.264 548.866 63.112 549.41 62.808C549.954 62.488 550.386 62.04 550.706 61.464C551.026 60.872 551.186 60.168 551.186 59.352ZM561.763 55.464V61.896C561.763 62.344 561.867 62.672 562.075 62.88C562.299 63.072 562.667 63.168 563.179 63.168H564.739V66H562.627C559.795 66 558.379 64.624 558.379 61.872V55.464H556.795V52.704H558.379V49.416H561.763V52.704H564.739V55.464H561.763ZM585.427 52.704V66H582.043V64.32C581.611 64.896 581.043 65.352 580.339 65.688C579.651 66.008 578.899 66.168 578.083 66.168C577.043 66.168 576.123 65.952 575.323 65.52C574.523 65.072 573.891 64.424 573.427 63.576C572.979 62.712 572.755 61.688 572.755 60.504V52.704H576.115V60.024C576.115 61.08 576.379 61.896 576.907 62.472C577.435 63.032 578.155 63.312 579.067 63.312C579.995 63.312 580.723 63.032 581.251 62.472C581.779 61.896 582.043 61.08 582.043 60.024V52.704H585.427ZM596.11 52.512C597.694 52.512 598.974 53.016 599.95 54.024C600.926 55.016 601.414 56.408 601.414 58.2V66H598.054V58.656C598.054 57.6 597.79 56.792 597.262 56.232C596.734 55.656 596.014 55.368 595.102 55.368C594.174 55.368 593.438 55.656 592.894 56.232C592.366 56.792 592.102 57.6 592.102 58.656V66H588.742V52.704H592.102V54.36C592.55 53.784 593.118 53.336 593.806 53.016C594.51 52.68 595.278 52.512 596.11 52.512ZM608.521 55.464V61.896C608.521 62.344 608.625 62.672 608.833 62.88C609.057 63.072 609.425 63.168 609.937 63.168H611.497V66H609.385C606.553 66 605.137 64.624 605.137 61.872V55.464H603.553V52.704H605.137V49.416H608.521V52.704H611.497V55.464H608.521ZM626.466 52.704V66H623.082V64.32C622.65 64.896 622.082 65.352 621.378 65.688C620.69 66.008 619.938 66.168 619.122 66.168C618.082 66.168 617.162 65.952 616.362 65.52C615.562 65.072 614.93 64.424 614.466 63.576C614.018 62.712 613.794 61.688 613.794 60.504V52.704H617.154V60.024C617.154 61.08 617.418 61.896 617.946 62.472C618.474 63.032 619.194 63.312 620.106 63.312C621.034 63.312 621.762 63.032 622.29 62.472C622.818 61.896 623.082 61.08 623.082 60.024V52.704H626.466ZM637.653 66L633.141 60.336V66H629.781V48.24H633.141V58.344L637.605 52.704H641.973L636.117 59.376L642.021 66H637.653ZM102.168 85.512C103.8 85.512 105.112 86.016 106.104 87.024C107.112 88.016 107.616 89.408 107.616 91.2V99H104.256V91.656C104.256 90.616 103.992 89.824 103.464 89.28C102.936 88.72 102.216 88.44 101.304 88.44C100.392 88.44 99.664 88.72 99.12 89.28C98.592 89.824 98.328 90.616 98.328 91.656V99H94.968V91.656C94.968 90.616 94.704 89.824 94.176 89.28C93.648 88.72 92.928 88.44 92.016 88.44C91.088 88.44 90.352 88.72 89.808 89.28C89.28 89.824 89.016 90.616 89.016 91.656V99H85.656V85.704H89.016V87.312C89.448 86.752 90 86.312 90.672 85.992C91.36 85.672 92.112 85.512 92.928 85.512C93.968 85.512 94.896 85.736 95.712 86.184C96.528 86.616 97.16 87.24 97.608 88.056C98.04 87.288 98.664 86.672 99.48 86.208C100.312 85.744 101.208 85.512 102.168 85.512ZM123.164 92.064C123.164 92.544 123.132 92.976 123.068 93.36H113.348C113.428 94.32 113.764 95.072 114.356 95.616C114.948 96.16 115.676 96.432 116.54 96.432C117.788 96.432 118.676 95.896 119.204 94.824H122.828C122.444 96.104 121.708 97.16 120.62 97.992C119.532 98.808 118.196 99.216 116.612 99.216C115.332 99.216 114.18 98.936 113.156 98.376C112.148 97.8 111.356 96.992 110.78 95.952C110.22 94.912 109.94 93.712 109.94 92.352C109.94 90.976 110.22 89.768 110.78 88.728C111.34 87.688 112.124 86.888 113.132 86.328C114.14 85.768 115.3 85.488 116.612 85.488C117.876 85.488 119.004 85.76 119.996 86.304C121.004 86.848 121.78 87.624 122.324 88.632C122.884 89.624 123.164 90.768 123.164 92.064ZM119.684 91.104C119.668 90.24 119.356 89.552 118.748 89.04C118.14 88.512 117.396 88.248 116.516 88.248C115.684 88.248 114.98 88.504 114.404 89.016C113.844 89.512 113.5 90.208 113.372 91.104H119.684ZM128.977 81.24V99H125.617V81.24H128.977ZM134.001 84.12C133.409 84.12 132.913 83.936 132.513 83.568C132.129 83.184 131.937 82.712 131.937 82.152C131.937 81.592 132.129 81.128 132.513 80.76C132.913 80.376 133.409 80.184 134.001 80.184C134.593 80.184 135.081 80.376 135.465 80.76C135.865 81.128 136.065 81.592 136.065 82.152C136.065 82.712 135.865 83.184 135.465 83.568C135.081 83.936 134.593 84.12 134.001 84.12ZM135.657 85.704V99H132.297V85.704H135.657ZM146.464 85.512C147.472 85.512 148.368 85.736 149.152 86.184C149.936 86.616 150.544 87.264 150.976 88.128C151.424 88.976 151.648 90 151.648 91.2V99H148.288V91.656C148.288 90.6 148.024 89.792 147.496 89.232C146.968 88.656 146.248 88.368 145.336 88.368C144.408 88.368 143.672 88.656 143.128 89.232C142.6 89.792 142.336 90.6 142.336 91.656V99H138.976V81.24H142.336V87.36C142.768 86.784 143.344 86.336 144.064 86.016C144.784 85.68 145.584 85.512 146.464 85.512ZM153.979 92.304C153.979 90.96 154.243 89.768 154.771 88.728C155.316 87.688 156.044 86.888 156.956 86.328C157.884 85.768 158.916 85.488 160.052 85.488C161.044 85.488 161.908 85.688 162.644 86.088C163.396 86.488 163.996 86.992 164.444 87.6V85.704H167.828V99H164.444V97.056C164.012 97.68 163.412 98.2 162.644 98.616C161.892 99.016 161.02 99.216 160.028 99.216C158.908 99.216 157.884 98.928 156.956 98.352C156.044 97.776 155.316 96.968 154.771 95.928C154.243 94.872 153.979 93.664 153.979 92.304ZM164.444 92.352C164.444 91.536 164.284 90.84 163.964 90.264C163.644 89.672 163.212 89.224 162.668 88.92C162.124 88.6 161.54 88.44 160.916 88.44C160.292 88.44 159.716 88.592 159.188 88.896C158.66 89.2 158.228 89.648 157.892 90.24C157.572 90.816 157.412 91.504 157.412 92.304C157.412 93.104 157.572 93.808 157.892 94.416C158.228 95.008 158.66 95.464 159.188 95.784C159.732 96.104 160.308 96.264 160.916 96.264C161.54 96.264 162.124 96.112 162.668 95.808C163.212 95.488 163.644 95.04 163.964 94.464C164.284 93.872 164.444 93.168 164.444 92.352ZM175.021 88.464V94.896C175.021 95.344 175.125 95.672 175.333 95.88C175.557 96.072 175.925 96.168 176.437 96.168H177.997V99H175.885C173.053 99 171.637 97.624 171.637 94.872V88.464H170.053V85.704H171.637V82.416H175.021V85.704H177.997V88.464H175.021ZM202.645 85.512C204.277 85.512 205.589 86.016 206.581 87.024C207.589 88.016 208.093 89.408 208.093 91.2V99H204.733V91.656C204.733 90.616 204.469 89.824 203.941 89.28C203.413 88.72 202.693 88.44 201.781 88.44C200.869 88.44 200.141 88.72 199.597 89.28C199.069 89.824 198.805 90.616 198.805 91.656V99H195.445V91.656C195.445 90.616 195.181 89.824 194.653 89.28C194.125 88.72 193.405 88.44 192.493 88.44C191.565 88.44 190.829 88.72 190.285 89.28C189.757 89.824 189.493 90.616 189.493 91.656V99H186.133V85.704H189.493V87.312C189.925 86.752 190.477 86.312 191.149 85.992C191.837 85.672 192.589 85.512 193.405 85.512C194.445 85.512 195.373 85.736 196.189 86.184C197.005 86.616 197.637 87.24 198.085 88.056C198.517 87.288 199.141 86.672 199.957 86.208C200.789 85.744 201.685 85.512 202.645 85.512ZM223.833 85.704V99H220.449V97.32C220.017 97.896 219.449 98.352 218.745 98.688C218.057 99.008 217.305 99.168 216.489 99.168C215.449 99.168 214.529 98.952 213.729 98.52C212.929 98.072 212.297 97.424 211.833 96.576C211.385 95.712 211.161 94.688 211.161 93.504V85.704H214.521V93.024C214.521 94.08 214.785 94.896 215.313 95.472C215.841 96.032 216.561 96.312 217.473 96.312C218.401 96.312 219.129 96.032 219.657 95.472C220.185 94.896 220.449 94.08 220.449 93.024V85.704H223.833ZM231.06 88.464V94.896C231.06 95.344 231.164 95.672 231.372 95.88C231.596 96.072 231.964 96.168 232.476 96.168H234.036V99H231.924C229.092 99 227.676 97.624 227.676 94.872V88.464H226.092V85.704H227.676V82.416H231.06V85.704H234.036V88.464H231.06ZM249.005 85.704V99H245.621V97.32C245.189 97.896 244.621 98.352 243.917 98.688C243.229 99.008 242.477 99.168 241.661 99.168C240.621 99.168 239.701 98.952 238.901 98.52C238.101 98.072 237.469 97.424 237.005 96.576C236.557 95.712 236.333 94.688 236.333 93.504V85.704H239.693V93.024C239.693 94.08 239.957 94.896 240.485 95.472C241.013 96.032 241.733 96.312 242.645 96.312C243.573 96.312 244.301 96.032 244.829 95.472C245.357 94.896 245.621 94.08 245.621 93.024V85.704H249.005ZM265.911 99L261.399 93.336V99H258.039V81.24H261.399V91.344L265.863 85.704H270.231L264.375 92.376L270.279 99H265.911ZM271.19 92.304C271.19 90.96 271.454 89.768 271.982 88.728C272.526 87.688 273.254 86.888 274.166 86.328C275.094 85.768 276.126 85.488 277.262 85.488C278.254 85.488 279.118 85.688 279.854 86.088C280.606 86.488 281.206 86.992 281.654 87.6V85.704H285.038V99H281.654V97.056C281.222 97.68 280.622 98.2 279.854 98.616C279.102 99.016 278.23 99.216 277.238 99.216C276.118 99.216 275.094 98.928 274.166 98.352C273.254 97.776 272.526 96.968 271.982 95.928C271.454 94.872 271.19 93.664 271.19 92.304ZM281.654 92.352C281.654 91.536 281.494 90.84 281.174 90.264C280.854 89.672 280.422 89.224 279.878 88.92C279.334 88.6 278.75 88.44 278.126 88.44C277.502 88.44 276.926 88.592 276.398 88.896C275.87 89.2 275.438 89.648 275.102 90.24C274.782 90.816 274.622 91.504 274.622 92.304C274.622 93.104 274.782 93.808 275.102 94.416C275.438 95.008 275.87 95.464 276.398 95.784C276.942 96.104 277.518 96.264 278.126 96.264C278.75 96.264 279.334 96.112 279.878 95.808C280.422 95.488 280.854 95.04 281.174 94.464C281.494 93.872 281.654 93.168 281.654 92.352ZM295.688 85.512C297.272 85.512 298.552 86.016 299.528 87.024C300.504 88.016 300.992 89.408 300.992 91.2V99H297.632V91.656C297.632 90.6 297.368 89.792 296.84 89.232C296.312 88.656 295.592 88.368 294.68 88.368C293.752 88.368 293.016 88.656 292.472 89.232C291.944 89.792 291.68 90.6 291.68 91.656V99H288.32V85.704H291.68V87.36C292.128 86.784 292.696 86.336 293.384 86.016C294.088 85.68 294.856 85.512 295.688 85.512ZM303.323 92.304C303.323 90.96 303.587 89.768 304.115 88.728C304.659 87.688 305.395 86.888 306.323 86.328C307.251 85.768 308.283 85.488 309.419 85.488C310.283 85.488 311.107 85.68 311.891 86.064C312.675 86.432 313.299 86.928 313.763 87.552V81.24H317.171V99H313.763V97.032C313.347 97.688 312.763 98.216 312.011 98.616C311.259 99.016 310.387 99.216 309.395 99.216C308.275 99.216 307.251 98.928 306.323 98.352C305.395 97.776 304.659 96.968 304.115 95.928C303.587 94.872 303.323 93.664 303.323 92.304ZM313.787 92.352C313.787 91.536 313.627 90.84 313.307 90.264C312.987 89.672 312.555 89.224 312.011 88.92C311.467 88.6 310.883 88.44 310.259 88.44C309.635 88.44 309.059 88.592 308.531 88.896C308.003 89.2 307.571 89.648 307.235 90.24C306.915 90.816 306.755 91.504 306.755 92.304C306.755 93.104 306.915 93.808 307.235 94.416C307.571 95.008 308.003 95.464 308.531 95.784C309.075 96.104 309.651 96.264 310.259 96.264C310.883 96.264 311.467 96.112 312.011 95.808C312.555 95.488 312.987 95.04 313.307 94.464C313.627 93.872 313.787 93.168 313.787 92.352ZM322.157 84.12C321.565 84.12 321.069 83.936 320.669 83.568C320.285 83.184 320.093 82.712 320.093 82.152C320.093 81.592 320.285 81.128 320.669 80.76C321.069 80.376 321.565 80.184 322.157 80.184C322.749 80.184 323.237 80.376 323.621 80.76C324.021 81.128 324.221 81.592 324.221 82.152C324.221 82.712 324.021 83.184 323.621 83.568C323.237 83.936 322.749 84.12 322.157 84.12ZM323.813 85.704V99H320.453V85.704H323.813ZM326.269 92.304C326.269 90.96 326.533 89.768 327.061 88.728C327.605 87.688 328.341 86.888 329.269 86.328C330.197 85.768 331.229 85.488 332.365 85.488C333.229 85.488 334.053 85.68 334.837 86.064C335.621 86.432 336.245 86.928 336.709 87.552V81.24H340.117V99H336.709V97.032C336.293 97.688 335.709 98.216 334.957 98.616C334.205 99.016 333.333 99.216 332.341 99.216C331.221 99.216 330.197 98.928 329.269 98.352C328.341 97.776 327.605 96.968 327.061 95.928C326.533 94.872 326.269 93.664 326.269 92.304ZM336.733 92.352C336.733 91.536 336.573 90.84 336.253 90.264C335.933 89.672 335.501 89.224 334.957 88.92C334.413 88.6 333.829 88.44 333.205 88.44C332.581 88.44 332.005 88.592 331.477 88.896C330.949 89.2 330.517 89.648 330.181 90.24C329.861 90.816 329.701 91.504 329.701 92.304C329.701 93.104 329.861 93.808 330.181 94.416C330.517 95.008 330.949 95.464 331.477 95.784C332.021 96.104 332.597 96.264 333.205 96.264C333.829 96.264 334.413 96.112 334.957 95.808C335.501 95.488 335.933 95.04 336.253 94.464C336.573 93.872 336.733 93.168 336.733 92.352ZM342.534 92.304C342.534 90.96 342.798 89.768 343.326 88.728C343.87 87.688 344.598 86.888 345.51 86.328C346.438 85.768 347.47 85.488 348.606 85.488C349.598 85.488 350.462 85.688 351.198 86.088C351.95 86.488 352.55 86.992 352.998 87.6V85.704H356.382V99H352.998V97.056C352.566 97.68 351.966 98.2 351.198 98.616C350.446 99.016 349.574 99.216 348.582 99.216C347.462 99.216 346.438 98.928 345.51 98.352C344.598 97.776 343.87 96.968 343.326 95.928C342.798 94.872 342.534 93.664 342.534 92.304ZM352.998 92.352C352.998 91.536 352.838 90.84 352.518 90.264C352.198 89.672 351.766 89.224 351.222 88.92C350.678 88.6 350.094 88.44 349.47 88.44C348.846 88.44 348.27 88.592 347.742 88.896C347.214 89.2 346.782 89.648 346.446 90.24C346.126 90.816 345.966 91.504 345.966 92.304C345.966 93.104 346.126 93.808 346.446 94.416C346.782 95.008 347.214 95.464 347.742 95.784C348.286 96.104 348.862 96.264 349.47 96.264C350.094 96.264 350.678 96.112 351.222 95.808C351.766 95.488 352.198 95.04 352.518 94.464C352.838 93.872 352.998 93.168 352.998 92.352ZM363.576 88.464V94.896C363.576 95.344 363.68 95.672 363.888 95.88C364.112 96.072 364.48 96.168 364.992 96.168H366.552V99H364.44C361.608 99 360.192 97.624 360.192 94.872V88.464H358.608V85.704H360.192V82.416H363.576V85.704H366.552V88.464H363.576Z" fill="#0A3175"/>
<path d="M25.744 97.848C27.92 96.12 28.912 95.32 28.72 95.448C34.992 90.264 39.92 86.008 43.504 82.68C47.152 79.352 50.224 75.864 52.72 72.216C55.216 68.568 56.464 65.016 56.464 61.56C56.464 58.936 55.856 56.888 54.64 55.416C53.424 53.944 51.6 53.208 49.168 53.208C46.736 53.208 44.816 54.136 43.408 55.992C42.064 57.784 41.392 60.344 41.392 63.672H25.552C25.68 58.232 26.832 53.688 29.008 50.04C31.248 46.392 34.16 43.704 37.744 41.976C41.392 40.248 45.424 39.384 49.84 39.384C57.456 39.384 63.184 41.336 67.024 45.24C70.928 49.144 72.88 54.232 72.88 60.504C72.88 67.352 70.544 73.72 65.872 79.608C61.2 85.432 55.248 91.128 48.016 96.696H73.936V110.04H25.744V97.848Z" fill="#307DFB" fill-opacity="0.54"/>
<defs>
<filter id="filter0_d_76:154" x="0.5" y="0.5" width="666" height="160" filterUnits="userSpaceOnUse" color-interpolation-filters="sRGB">
<feFlood flood-opacity="0" result="BackgroundImageFix"/>
<feColorMatrix in="SourceAlpha" type="matrix" values="0 0 0 0 0 0 0 0 0 0 0 0 0 0 0 0 0 0 127 0" result="hardAlpha"/>
<feMorphology radius="2" operator="dilate" in="SourceAlpha" result="effect1_dropShadow_76:154"/>
<feOffset dy="4"/>
<feGaussianBlur stdDeviation="2"/>
<feComposite in2="hardAlpha" operator="out"/>
<feColorMatrix type="matrix" values="0 0 0 0 0 0 0 0 0 0 0 0 0 0 0 0 0 0 0.5 0"/>
<feBlend mode="normal" in2="BackgroundImageFix" result="effect1_dropShadow_76:154"/>
<feBlend mode="normal" in="SourceGraphic" in2="effect1_dropShadow_76:154" result="shape"/>
</filter>
</defs>
</svg>
