<svg width="667" height="124" viewBox="0 0 667 124" fill="none" xmlns="http://www.w3.org/2000/svg">
<g filter="url(#filter0_d_76:155)">
<rect x="7" y="3" width="653" height="110" rx="20" stroke="#0F46A5" shape-rendering="crispEdges"/>
</g>
<path d="M97.872 36.432C97.872 37.328 97.656 38.168 97.224 38.952C96.808 39.736 96.144 40.368 95.232 40.848C94.336 41.328 93.2 41.568 91.824 41.568H89.016V48H85.656V31.248H91.824C93.12 31.248 94.224 31.472 95.136 31.92C96.048 32.368 96.728 32.984 97.176 33.768C97.64 34.552 97.872 35.44 97.872 36.432ZM91.68 38.856C92.608 38.856 93.296 38.648 93.744 38.232C94.192 37.8 94.416 37.2 94.416 36.432C94.416 34.8 93.504 33.984 91.68 33.984H89.016V38.856H91.68ZM112.618 41.064C112.618 41.544 112.586 41.976 112.522 42.36H102.802C102.882 43.32 103.218 44.072 103.81 44.616C104.402 45.16 105.13 45.432 105.994 45.432C107.242 45.432 108.13 44.896 108.658 43.824H112.282C111.898 45.104 111.162 46.16 110.074 46.992C108.986 47.808 107.65 48.216 106.066 48.216C104.786 48.216 103.634 47.936 102.61 47.376C101.602 46.8 100.81 45.992 100.234 44.952C99.6736 43.912 99.3936 42.712 99.3936 41.352C99.3936 39.976 99.6736 38.768 100.234 37.728C100.794 36.688 101.578 35.888 102.586 35.328C103.594 34.768 104.754 34.488 106.066 34.488C107.33 34.488 108.458 34.76 109.45 35.304C110.458 35.848 111.234 36.624 111.778 37.632C112.338 38.624 112.618 39.768 112.618 41.064ZM109.138 40.104C109.122 39.24 108.81 38.552 108.202 38.04C107.594 37.512 106.85 37.248 105.97 37.248C105.138 37.248 104.434 37.504 103.858 38.016C103.298 38.512 102.954 39.208 102.826 40.104H109.138ZM131.582 34.512C133.214 34.512 134.526 35.016 135.518 36.024C136.526 37.016 137.03 38.408 137.03 40.2V48H133.67V40.656C133.67 39.616 133.406 38.824 132.878 38.28C132.35 37.72 131.63 37.44 130.718 37.44C129.806 37.44 129.078 37.72 128.534 38.28C128.006 38.824 127.742 39.616 127.742 40.656V48H124.382V40.656C124.382 39.616 124.118 38.824 123.59 38.28C123.062 37.72 122.342 37.44 121.43 37.44C120.502 37.44 119.766 37.72 119.222 38.28C118.694 38.824 118.43 39.616 118.43 40.656V48H115.07V34.704H118.43V36.312C118.862 35.752 119.414 35.312 120.086 34.992C120.774 34.672 121.526 34.512 122.342 34.512C123.382 34.512 124.31 34.736 125.126 35.184C125.942 35.616 126.574 36.24 127.022 37.056C127.454 36.288 128.078 35.672 128.894 35.208C129.726 34.744 130.622 34.512 131.582 34.512ZM141.923 33.12C141.331 33.12 140.835 32.936 140.435 32.568C140.051 32.184 139.859 31.712 139.859 31.152C139.859 30.592 140.051 30.128 140.435 29.76C140.835 29.376 141.331 29.184 141.923 29.184C142.515 29.184 143.003 29.376 143.387 29.76C143.787 30.128 143.987 30.592 143.987 31.152C143.987 31.712 143.787 32.184 143.387 32.568C143.003 32.936 142.515 33.12 141.923 33.12ZM143.579 34.704V48H140.219V34.704H143.579ZM150.258 30.24V48H146.898V30.24H150.258ZM155.282 33.12C154.69 33.12 154.194 32.936 153.794 32.568C153.41 32.184 153.218 31.712 153.218 31.152C153.218 30.592 153.41 30.128 153.794 29.76C154.194 29.376 154.69 29.184 155.282 29.184C155.874 29.184 156.362 29.376 156.746 29.76C157.146 30.128 157.346 30.592 157.346 31.152C157.346 31.712 157.146 32.184 156.746 32.568C156.362 32.936 155.874 33.12 155.282 33.12ZM156.938 34.704V48H153.578V34.704H156.938ZM167.746 34.512C168.754 34.512 169.65 34.736 170.434 35.184C171.218 35.616 171.826 36.264 172.258 37.128C172.706 37.976 172.93 39 172.93 40.2V48H169.57V40.656C169.57 39.6 169.306 38.792 168.778 38.232C168.25 37.656 167.53 37.368 166.618 37.368C165.69 37.368 164.954 37.656 164.41 38.232C163.882 38.792 163.618 39.6 163.618 40.656V48H160.258V30.24H163.618V36.36C164.05 35.784 164.626 35.336 165.346 35.016C166.066 34.68 166.866 34.512 167.746 34.512ZM198.356 34.512C199.988 34.512 201.3 35.016 202.292 36.024C203.3 37.016 203.804 38.408 203.804 40.2V48H200.444V40.656C200.444 39.616 200.18 38.824 199.652 38.28C199.124 37.72 198.404 37.44 197.492 37.44C196.58 37.44 195.852 37.72 195.308 38.28C194.78 38.824 194.516 39.616 194.516 40.656V48H191.156V40.656C191.156 39.616 190.892 38.824 190.364 38.28C189.836 37.72 189.116 37.44 188.204 37.44C187.276 37.44 186.54 37.72 185.996 38.28C185.468 38.824 185.204 39.616 185.204 40.656V48H181.844V34.704H185.204V36.312C185.636 35.752 186.188 35.312 186.86 34.992C187.548 34.672 188.3 34.512 189.116 34.512C190.156 34.512 191.084 34.736 191.9 35.184C192.716 35.616 193.348 36.24 193.796 37.056C194.228 36.288 194.852 35.672 195.668 35.208C196.5 34.744 197.396 34.512 198.356 34.512ZM219.352 41.064C219.352 41.544 219.32 41.976 219.256 42.36H209.536C209.616 43.32 209.952 44.072 210.544 44.616C211.136 45.16 211.864 45.432 212.728 45.432C213.976 45.432 214.864 44.896 215.392 43.824H219.016C218.632 45.104 217.896 46.16 216.808 46.992C215.72 47.808 214.384 48.216 212.8 48.216C211.52 48.216 210.368 47.936 209.344 47.376C208.336 46.8 207.544 45.992 206.968 44.952C206.408 43.912 206.128 42.712 206.128 41.352C206.128 39.976 206.408 38.768 206.968 37.728C207.528 36.688 208.312 35.888 209.32 35.328C210.328 34.768 211.488 34.488 212.8 34.488C214.064 34.488 215.192 34.76 216.184 35.304C217.192 35.848 217.968 36.624 218.512 37.632C219.072 38.624 219.352 39.768 219.352 41.064ZM215.872 40.104C215.856 39.24 215.544 38.552 214.936 38.04C214.328 37.512 213.584 37.248 212.704 37.248C211.872 37.248 211.168 37.504 210.592 38.016C210.032 38.512 209.688 39.208 209.56 40.104H215.872ZM225.164 30.24V48H221.804V30.24H225.164ZM227.62 41.304C227.62 39.96 227.884 38.768 228.412 37.728C228.956 36.688 229.684 35.888 230.596 35.328C231.524 34.768 232.556 34.488 233.692 34.488C234.684 34.488 235.548 34.688 236.284 35.088C237.036 35.488 237.636 35.992 238.084 36.6V34.704H241.468V48H238.084V46.056C237.652 46.68 237.052 47.2 236.284 47.616C235.532 48.016 234.66 48.216 233.668 48.216C232.548 48.216 231.524 47.928 230.596 47.352C229.684 46.776 228.956 45.968 228.412 44.928C227.884 43.872 227.62 42.664 227.62 41.304ZM238.084 41.352C238.084 40.536 237.924 39.84 237.604 39.264C237.284 38.672 236.852 38.224 236.308 37.92C235.764 37.6 235.18 37.44 234.556 37.44C233.932 37.44 233.356 37.592 232.828 37.896C232.3 38.2 231.868 38.648 231.532 39.24C231.212 39.816 231.052 40.504 231.052 41.304C231.052 42.104 231.212 42.808 231.532 43.416C231.868 44.008 232.3 44.464 232.828 44.784C233.372 45.104 233.948 45.264 234.556 45.264C235.18 45.264 235.764 45.112 236.308 44.808C236.852 44.488 237.284 44.04 237.604 43.464C237.924 42.872 238.084 42.168 238.084 41.352ZM252.622 48L248.11 42.336V48H244.75V30.24H248.11V40.344L252.574 34.704H256.942L251.086 41.376L256.99 48H252.622ZM271.317 34.704V48H267.933V46.32C267.501 46.896 266.933 47.352 266.229 47.688C265.541 48.008 264.789 48.168 263.973 48.168C262.933 48.168 262.013 47.952 261.213 47.52C260.413 47.072 259.781 46.424 259.317 45.576C258.869 44.712 258.645 43.688 258.645 42.504V34.704H262.005V42.024C262.005 43.08 262.269 43.896 262.797 44.472C263.325 45.032 264.045 45.312 264.957 45.312C265.885 45.312 266.613 45.032 267.141 44.472C267.669 43.896 267.933 43.08 267.933 42.024V34.704H271.317ZM282.505 48L277.993 42.336V48H274.633V30.24H277.993V40.344L282.457 34.704H286.825L280.969 41.376L286.873 48H282.505ZM287.784 41.304C287.784 39.96 288.048 38.768 288.576 37.728C289.12 36.688 289.848 35.888 290.76 35.328C291.688 34.768 292.72 34.488 293.856 34.488C294.848 34.488 295.712 34.688 296.448 35.088C297.2 35.488 297.8 35.992 298.248 36.6V34.704H301.632V48H298.248V46.056C297.816 46.68 297.216 47.2 296.448 47.616C295.696 48.016 294.824 48.216 293.832 48.216C292.712 48.216 291.688 47.928 290.76 47.352C289.848 46.776 289.12 45.968 288.576 44.928C288.048 43.872 287.784 42.664 287.784 41.304ZM298.248 41.352C298.248 40.536 298.088 39.84 297.768 39.264C297.448 38.672 297.016 38.224 296.472 37.92C295.928 37.6 295.344 37.44 294.72 37.44C294.096 37.44 293.52 37.592 292.992 37.896C292.464 38.2 292.032 38.648 291.696 39.24C291.376 39.816 291.216 40.504 291.216 41.304C291.216 42.104 291.376 42.808 291.696 43.416C292.032 44.008 292.464 44.464 292.992 44.784C293.536 45.104 294.112 45.264 294.72 45.264C295.344 45.264 295.928 45.112 296.472 44.808C297.016 44.488 297.448 44.04 297.768 43.464C298.088 42.872 298.248 42.168 298.248 41.352ZM312.282 34.512C313.866 34.512 315.146 35.016 316.122 36.024C317.098 37.016 317.586 38.408 317.586 40.2V48H314.226V40.656C314.226 39.6 313.962 38.792 313.434 38.232C312.906 37.656 312.186 37.368 311.274 37.368C310.346 37.368 309.61 37.656 309.066 38.232C308.538 38.792 308.274 39.6 308.274 40.656V48H304.914V34.704H308.274V36.36C308.722 35.784 309.29 35.336 309.978 35.016C310.682 34.68 311.45 34.512 312.282 34.512ZM332.044 44.904L335.404 34.704H338.98L334.06 48H329.98L325.084 34.704H328.684L332.044 44.904ZM346.771 48.216C345.491 48.216 344.339 47.936 343.315 47.376C342.291 46.8 341.483 45.992 340.891 44.952C340.315 43.912 340.027 42.712 340.027 41.352C340.027 39.992 340.323 38.792 340.915 37.752C341.523 36.712 342.347 35.912 343.387 35.352C344.427 34.776 345.587 34.488 346.867 34.488C348.147 34.488 349.307 34.776 350.347 35.352C351.387 35.912 352.203 36.712 352.795 37.752C353.403 38.792 353.707 39.992 353.707 41.352C353.707 42.712 353.395 43.912 352.771 44.952C352.163 45.992 351.331 46.8 350.275 47.376C349.235 47.936 348.067 48.216 346.771 48.216ZM346.771 45.288C347.379 45.288 347.947 45.144 348.475 44.856C349.019 44.552 349.451 44.104 349.771 43.512C350.091 42.92 350.251 42.2 350.251 41.352C350.251 40.088 349.915 39.12 349.243 38.448C348.587 37.76 347.779 37.416 346.819 37.416C345.859 37.416 345.051 37.76 344.395 38.448C343.755 39.12 343.435 40.088 343.435 41.352C343.435 42.616 343.747 43.592 344.371 44.28C345.011 44.952 345.811 45.288 346.771 45.288ZM360.084 37.464V43.896C360.084 44.344 360.188 44.672 360.396 44.88C360.62 45.072 360.988 45.168 361.5 45.168H363.06V48H360.948C358.116 48 356.7 46.624 356.7 43.872V37.464H355.116V34.704H356.7V31.416H360.084V34.704H363.06V37.464H360.084ZM367.18 33.12C366.588 33.12 366.092 32.936 365.692 32.568C365.308 32.184 365.116 31.712 365.116 31.152C365.116 30.592 365.308 30.128 365.692 29.76C366.092 29.376 366.588 29.184 367.18 29.184C367.772 29.184 368.26 29.376 368.644 29.76C369.044 30.128 369.244 30.592 369.244 31.152C369.244 31.712 369.044 32.184 368.644 32.568C368.26 32.936 367.772 33.12 367.18 33.12ZM368.836 34.704V48H365.476V34.704H368.836ZM379.524 34.512C381.108 34.512 382.388 35.016 383.364 36.024C384.34 37.016 384.828 38.408 384.828 40.2V48H381.468V40.656C381.468 39.6 381.204 38.792 380.676 38.232C380.148 37.656 379.428 37.368 378.516 37.368C377.588 37.368 376.852 37.656 376.308 38.232C375.78 38.792 375.516 39.6 375.516 40.656V48H372.156V34.704H375.516V36.36C375.964 35.784 376.532 35.336 377.22 35.016C377.924 34.68 378.692 34.512 379.524 34.512ZM393.231 34.488C394.223 34.488 395.095 34.688 395.847 35.088C396.599 35.472 397.191 35.976 397.623 36.6V34.704H401.007V48.096C401.007 49.328 400.759 50.424 400.263 51.384C399.767 52.36 399.023 53.128 398.031 53.688C397.039 54.264 395.839 54.552 394.431 54.552C392.543 54.552 390.991 54.112 389.775 53.232C388.575 52.352 387.895 51.152 387.735 49.632H391.071C391.247 50.24 391.623 50.72 392.199 51.072C392.791 51.44 393.503 51.624 394.335 51.624C395.311 51.624 396.103 51.328 396.711 50.736C397.319 50.16 397.623 49.28 397.623 48.096V46.032C397.191 46.656 396.591 47.176 395.823 47.592C395.071 48.008 394.207 48.216 393.231 48.216C392.111 48.216 391.087 47.928 390.159 47.352C389.231 46.776 388.495 45.968 387.951 44.928C387.423 43.872 387.159 42.664 387.159 41.304C387.159 39.96 387.423 38.768 387.951 37.728C388.495 36.688 389.223 35.888 390.135 35.328C391.063 34.768 392.095 34.488 393.231 34.488ZM397.623 41.352C397.623 40.536 397.463 39.84 397.143 39.264C396.823 38.672 396.391 38.224 395.847 37.92C395.303 37.6 394.719 37.44 394.095 37.44C393.471 37.44 392.895 37.592 392.367 37.896C391.839 38.2 391.407 38.648 391.071 39.24C390.751 39.816 390.591 40.504 390.591 41.304C390.591 42.104 390.751 42.808 391.071 43.416C391.407 44.008 391.839 44.464 392.367 44.784C392.911 45.104 393.487 45.264 394.095 45.264C394.719 45.264 395.303 45.112 395.847 44.808C396.391 44.488 396.823 44.04 397.143 43.464C397.463 42.872 397.623 42.168 397.623 41.352ZM417.88 48L413.368 42.336V48H410.008V30.24H413.368V40.344L417.832 34.704H422.2L416.344 41.376L422.248 48H417.88ZM436.383 41.064C436.383 41.544 436.351 41.976 436.287 42.36H426.567C426.647 43.32 426.983 44.072 427.575 44.616C428.167 45.16 428.895 45.432 429.759 45.432C431.007 45.432 431.895 44.896 432.423 43.824H436.047C435.663 45.104 434.927 46.16 433.839 46.992C432.751 47.808 431.415 48.216 429.831 48.216C428.551 48.216 427.399 47.936 426.375 47.376C425.367 46.8 424.575 45.992 423.999 44.952C423.439 43.912 423.159 42.712 423.159 41.352C423.159 39.976 423.439 38.768 423.999 37.728C424.559 36.688 425.343 35.888 426.351 35.328C427.359 34.768 428.519 34.488 429.831 34.488C431.095 34.488 432.223 34.76 433.215 35.304C434.223 35.848 434.999 36.624 435.543 37.632C436.103 38.624 436.383 39.768 436.383 41.064ZM432.903 40.104C432.887 39.24 432.575 38.552 431.967 38.04C431.359 37.512 430.615 37.248 429.735 37.248C428.903 37.248 428.199 37.504 427.623 38.016C427.063 38.512 426.719 39.208 426.591 40.104H432.903ZM442.748 37.464V43.896C442.748 44.344 442.852 44.672 443.06 44.88C443.284 45.072 443.652 45.168 444.164 45.168H445.724V48H443.612C440.78 48 439.364 46.624 439.364 43.872V37.464H437.78V34.704H439.364V31.416H442.748V34.704H445.724V37.464H442.748ZM460.692 34.704V48H457.308V46.32C456.876 46.896 456.308 47.352 455.604 47.688C454.916 48.008 454.164 48.168 453.348 48.168C452.308 48.168 451.388 47.952 450.588 47.52C449.788 47.072 449.156 46.424 448.692 45.576C448.244 44.712 448.02 43.688 448.02 42.504V34.704H451.38V42.024C451.38 43.08 451.644 43.896 452.172 44.472C452.7 45.032 453.42 45.312 454.332 45.312C455.26 45.312 455.988 45.032 456.516 44.472C457.044 43.896 457.308 43.08 457.308 42.024V34.704H460.692ZM463.144 41.304C463.144 39.96 463.408 38.768 463.936 37.728C464.48 36.688 465.208 35.888 466.12 35.328C467.048 34.768 468.08 34.488 469.216 34.488C470.208 34.488 471.072 34.688 471.808 35.088C472.56 35.488 473.16 35.992 473.608 36.6V34.704H476.992V48H473.608V46.056C473.176 46.68 472.576 47.2 471.808 47.616C471.056 48.016 470.184 48.216 469.192 48.216C468.072 48.216 467.048 47.928 466.12 47.352C465.208 46.776 464.48 45.968 463.936 44.928C463.408 43.872 463.144 42.664 463.144 41.304ZM473.608 41.352C473.608 40.536 473.448 39.84 473.128 39.264C472.808 38.672 472.376 38.224 471.832 37.92C471.288 37.6 470.704 37.44 470.08 37.44C469.456 37.44 468.88 37.592 468.352 37.896C467.824 38.2 467.392 38.648 467.056 39.24C466.736 39.816 466.576 40.504 466.576 41.304C466.576 42.104 466.736 42.808 467.056 43.416C467.392 44.008 467.824 44.464 468.352 44.784C468.896 45.104 469.472 45.264 470.08 45.264C470.704 45.264 471.288 45.112 471.832 44.808C472.376 44.488 472.808 44.04 473.128 43.464C473.448 42.872 473.608 42.168 473.608 41.352ZM485.128 41.304C485.128 39.96 485.392 38.768 485.92 37.728C486.464 36.688 487.2 35.888 488.128 35.328C489.056 34.768 490.088 34.488 491.224 34.488C492.088 34.488 492.912 34.68 493.696 35.064C494.48 35.432 495.104 35.928 495.568 36.552V30.24H498.976V48H495.568V46.032C495.152 46.688 494.568 47.216 493.816 47.616C493.064 48.016 492.192 48.216 491.2 48.216C490.08 48.216 489.056 47.928 488.128 47.352C487.2 46.776 486.464 45.968 485.92 44.928C485.392 43.872 485.128 42.664 485.128 41.304ZM495.592 41.352C495.592 40.536 495.432 39.84 495.112 39.264C494.792 38.672 494.36 38.224 493.816 37.92C493.272 37.6 492.688 37.44 492.064 37.44C491.44 37.44 490.864 37.592 490.336 37.896C489.808 38.2 489.376 38.648 489.04 39.24C488.72 39.816 488.56 40.504 488.56 41.304C488.56 42.104 488.72 42.808 489.04 43.416C489.376 44.008 489.808 44.464 490.336 44.784C490.88 45.104 491.456 45.264 492.064 45.264C492.688 45.264 493.272 45.112 493.816 44.808C494.36 44.488 494.792 44.04 495.112 43.464C495.432 42.872 495.592 42.168 495.592 41.352ZM501.394 41.304C501.394 39.96 501.658 38.768 502.186 37.728C502.73 36.688 503.458 35.888 504.37 35.328C505.298 34.768 506.33 34.488 507.466 34.488C508.458 34.488 509.322 34.688 510.058 35.088C510.81 35.488 511.41 35.992 511.858 36.6V34.704H515.242V48H511.858V46.056C511.426 46.68 510.826 47.2 510.058 47.616C509.306 48.016 508.434 48.216 507.442 48.216C506.322 48.216 505.298 47.928 504.37 47.352C503.458 46.776 502.73 45.968 502.186 44.928C501.658 43.872 501.394 42.664 501.394 41.304ZM511.858 41.352C511.858 40.536 511.698 39.84 511.378 39.264C511.058 38.672 510.626 38.224 510.082 37.92C509.538 37.6 508.954 37.44 508.33 37.44C507.706 37.44 507.13 37.592 506.602 37.896C506.074 38.2 505.642 38.648 505.306 39.24C504.986 39.816 504.826 40.504 504.826 41.304C504.826 42.104 504.986 42.808 505.306 43.416C505.642 44.008 506.074 44.464 506.602 44.784C507.146 45.104 507.722 45.264 508.33 45.264C508.954 45.264 509.538 45.112 510.082 44.808C510.626 44.488 511.058 44.04 511.378 43.464C511.698 42.872 511.858 42.168 511.858 41.352ZM525.891 34.512C527.475 34.512 528.755 35.016 529.731 36.024C530.707 37.016 531.195 38.408 531.195 40.2V48H527.835V40.656C527.835 39.6 527.571 38.792 527.043 38.232C526.515 37.656 525.795 37.368 524.883 37.368C523.955 37.368 523.219 37.656 522.675 38.232C522.147 38.792 521.883 39.6 521.883 40.656V48H518.523V34.704H521.883V36.36C522.331 35.784 522.899 35.336 523.587 35.016C524.291 34.68 525.059 34.512 525.891 34.512ZM558.541 34.704L554.653 48H551.029L548.605 38.712L546.181 48H542.533L538.621 34.704H542.029L544.381 44.832L546.925 34.704H550.477L552.973 44.808L555.325 34.704H558.541ZM559.495 41.304C559.495 39.96 559.759 38.768 560.287 37.728C560.831 36.688 561.559 35.888 562.471 35.328C563.399 34.768 564.431 34.488 565.567 34.488C566.559 34.488 567.423 34.688 568.159 35.088C568.911 35.488 569.511 35.992 569.959 36.6V34.704H573.343V48H569.959V46.056C569.527 46.68 568.927 47.2 568.159 47.616C567.407 48.016 566.535 48.216 565.543 48.216C564.423 48.216 563.399 47.928 562.471 47.352C561.559 46.776 560.831 45.968 560.287 44.928C559.759 43.872 559.495 42.664 559.495 41.304ZM569.959 41.352C569.959 40.536 569.799 39.84 569.479 39.264C569.159 38.672 568.727 38.224 568.183 37.92C567.639 37.6 567.055 37.44 566.431 37.44C565.807 37.44 565.231 37.592 564.703 37.896C564.175 38.2 563.743 38.648 563.407 39.24C563.087 39.816 562.927 40.504 562.927 41.304C562.927 42.104 563.087 42.808 563.407 43.416C563.743 44.008 564.175 44.464 564.703 44.784C565.247 45.104 565.823 45.264 566.431 45.264C567.055 45.264 567.639 45.112 568.183 44.808C568.727 44.488 569.159 44.04 569.479 43.464C569.799 42.872 569.959 42.168 569.959 41.352ZM584.497 48L579.985 42.336V48H576.625V30.24H579.985V40.344L584.449 34.704H588.817L582.961 41.376L588.865 48H584.497ZM592.344 33.12C591.752 33.12 591.256 32.936 590.856 32.568C590.472 32.184 590.28 31.712 590.28 31.152C590.28 30.592 590.472 30.128 590.856 29.76C591.256 29.376 591.752 29.184 592.344 29.184C592.936 29.184 593.424 29.376 593.808 29.76C594.208 30.128 594.408 30.592 594.408 31.152C594.408 31.712 594.208 32.184 593.808 32.568C593.424 32.936 592.936 33.12 592.344 33.12ZM594 34.704V48H590.64V34.704H594ZM600.68 30.24V48H597.32V30.24H600.68ZM93.528 81L89.016 75.336V81H85.656V63.24H89.016V73.344L93.48 67.704H97.848L91.992 74.376L97.896 81H93.528ZM112.032 74.064C112.032 74.544 112 74.976 111.936 75.36H102.216C102.296 76.32 102.632 77.072 103.224 77.616C103.816 78.16 104.544 78.432 105.408 78.432C106.656 78.432 107.544 77.896 108.072 76.824H111.696C111.312 78.104 110.576 79.16 109.488 79.992C108.4 80.808 107.064 81.216 105.48 81.216C104.2 81.216 103.048 80.936 102.024 80.376C101.016 79.8 100.224 78.992 99.6476 77.952C99.0876 76.912 98.8076 75.712 98.8076 74.352C98.8076 72.976 99.0876 71.768 99.6476 70.728C100.208 69.688 100.992 68.888 102 68.328C103.008 67.768 104.168 67.488 105.48 67.488C106.744 67.488 107.872 67.76 108.864 68.304C109.872 68.848 110.648 69.624 111.192 70.632C111.752 71.624 112.032 72.768 112.032 74.064ZM108.552 73.104C108.536 72.24 108.224 71.552 107.616 71.04C107.008 70.512 106.264 70.248 105.384 70.248C104.552 70.248 103.848 70.504 103.272 71.016C102.712 71.512 102.368 72.208 102.24 73.104H108.552ZM118.396 70.464V76.896C118.396 77.344 118.5 77.672 118.708 77.88C118.932 78.072 119.3 78.168 119.812 78.168H121.372V81H119.26C116.428 81 115.012 79.624 115.012 76.872V70.464H113.428V67.704H115.012V64.416H118.396V67.704H121.372V70.464H118.396ZM136.341 67.704V81H132.957V79.32C132.525 79.896 131.957 80.352 131.253 80.688C130.565 81.008 129.813 81.168 128.997 81.168C127.957 81.168 127.037 80.952 126.237 80.52C125.437 80.072 124.805 79.424 124.341 78.576C123.893 77.712 123.669 76.688 123.669 75.504V67.704H127.029V75.024C127.029 76.08 127.293 76.896 127.821 77.472C128.349 78.032 129.069 78.312 129.981 78.312C130.909 78.312 131.637 78.032 132.165 77.472C132.693 76.896 132.957 76.08 132.957 75.024V67.704H136.341ZM138.792 74.304C138.792 72.96 139.056 71.768 139.584 70.728C140.128 69.688 140.856 68.888 141.768 68.328C142.696 67.768 143.728 67.488 144.864 67.488C145.856 67.488 146.72 67.688 147.456 68.088C148.208 68.488 148.808 68.992 149.256 69.6V67.704H152.64V81H149.256V79.056C148.824 79.68 148.224 80.2 147.456 80.616C146.704 81.016 145.832 81.216 144.84 81.216C143.72 81.216 142.696 80.928 141.768 80.352C140.856 79.776 140.128 78.968 139.584 77.928C139.056 76.872 138.792 75.664 138.792 74.304ZM149.256 74.352C149.256 73.536 149.096 72.84 148.776 72.264C148.456 71.672 148.024 71.224 147.48 70.92C146.936 70.6 146.352 70.44 145.728 70.44C145.104 70.44 144.528 70.592 144 70.896C143.472 71.2 143.04 71.648 142.704 72.24C142.384 72.816 142.224 73.504 142.224 74.304C142.224 75.104 142.384 75.808 142.704 76.416C143.04 77.008 143.472 77.464 144 77.784C144.544 78.104 145.12 78.264 145.728 78.264C146.352 78.264 146.936 78.112 147.48 77.808C148.024 77.488 148.456 77.04 148.776 76.464C149.096 75.872 149.256 75.168 149.256 74.352ZM157.41 81.168C156.802 81.168 156.298 80.984 155.898 80.616C155.514 80.232 155.322 79.76 155.322 79.2C155.322 78.64 155.514 78.176 155.898 77.808C156.298 77.424 156.802 77.232 157.41 77.232C158.002 77.232 158.49 77.424 158.874 77.808C159.258 78.176 159.45 78.64 159.45 79.2C159.45 79.76 159.258 80.232 158.874 80.616C158.49 80.984 158.002 81.168 157.41 81.168ZM181.771 64.248V81H178.411V73.872H171.235V81H167.875V64.248H171.235V71.136H178.411V64.248H181.771ZM184.214 74.304C184.214 72.96 184.478 71.768 185.006 70.728C185.55 69.688 186.278 68.888 187.19 68.328C188.118 67.768 189.15 67.488 190.286 67.488C191.278 67.488 192.142 67.688 192.878 68.088C193.63 68.488 194.23 68.992 194.678 69.6V67.704H198.062V81H194.678V79.056C194.246 79.68 193.646 80.2 192.878 80.616C192.126 81.016 191.254 81.216 190.262 81.216C189.142 81.216 188.118 80.928 187.19 80.352C186.278 79.776 185.55 78.968 185.006 77.928C184.478 76.872 184.214 75.664 184.214 74.304ZM194.678 74.352C194.678 73.536 194.518 72.84 194.198 72.264C193.878 71.672 193.446 71.224 192.902 70.92C192.358 70.6 191.774 70.44 191.15 70.44C190.526 70.44 189.95 70.592 189.422 70.896C188.894 71.2 188.462 71.648 188.126 72.24C187.806 72.816 187.646 73.504 187.646 74.304C187.646 75.104 187.806 75.808 188.126 76.416C188.462 77.008 188.894 77.464 189.422 77.784C189.966 78.104 190.542 78.264 191.15 78.264C191.774 78.264 192.358 78.112 192.902 77.808C193.446 77.488 193.878 77.04 194.198 76.464C194.518 75.872 194.678 75.168 194.678 74.352ZM208.712 67.512C210.296 67.512 211.576 68.016 212.552 69.024C213.528 70.016 214.016 71.408 214.016 73.2V81H210.656V73.656C210.656 72.6 210.392 71.792 209.864 71.232C209.336 70.656 208.616 70.368 207.704 70.368C206.776 70.368 206.04 70.656 205.496 71.232C204.968 71.792 204.704 72.6 204.704 73.656V81H201.344V67.704H204.704V69.36C205.152 68.784 205.72 68.336 206.408 68.016C207.112 67.68 207.88 67.512 208.712 67.512ZM229.931 67.704L221.699 87.288H218.123L221.003 80.664L215.675 67.704H219.443L222.875 76.992L226.355 67.704H229.931ZM230.878 74.304C230.878 72.96 231.142 71.768 231.67 70.728C232.214 69.688 232.942 68.888 233.854 68.328C234.782 67.768 235.814 67.488 236.95 67.488C237.942 67.488 238.806 67.688 239.542 68.088C240.294 68.488 240.894 68.992 241.342 69.6V67.704H244.726V81H241.342V79.056C240.91 79.68 240.31 80.2 239.542 80.616C238.79 81.016 237.918 81.216 236.926 81.216C235.806 81.216 234.782 80.928 233.854 80.352C232.942 79.776 232.214 78.968 231.67 77.928C231.142 76.872 230.878 75.664 230.878 74.304ZM241.342 74.352C241.342 73.536 241.182 72.84 240.862 72.264C240.542 71.672 240.11 71.224 239.566 70.92C239.022 70.6 238.438 70.44 237.814 70.44C237.19 70.44 236.614 70.592 236.086 70.896C235.558 71.2 235.126 71.648 234.79 72.24C234.47 72.816 234.31 73.504 234.31 74.304C234.31 75.104 234.47 75.808 234.79 76.416C235.126 77.008 235.558 77.464 236.086 77.784C236.63 78.104 237.206 78.264 237.814 78.264C238.438 78.264 239.022 78.112 239.566 77.808C240.11 77.488 240.542 77.04 240.862 76.464C241.182 75.872 241.342 75.168 241.342 74.352ZM252.862 74.304C252.862 72.96 253.126 71.768 253.654 70.728C254.198 69.688 254.934 68.888 255.862 68.328C256.79 67.768 257.822 67.488 258.958 67.488C259.822 67.488 260.646 67.68 261.43 68.064C262.214 68.432 262.838 68.928 263.302 69.552V63.24H266.71V81H263.302V79.032C262.886 79.688 262.302 80.216 261.55 80.616C260.798 81.016 259.926 81.216 258.934 81.216C257.814 81.216 256.79 80.928 255.862 80.352C254.934 79.776 254.198 78.968 253.654 77.928C253.126 76.872 252.862 75.664 252.862 74.304ZM263.326 74.352C263.326 73.536 263.166 72.84 262.846 72.264C262.526 71.672 262.094 71.224 261.55 70.92C261.006 70.6 260.422 70.44 259.798 70.44C259.174 70.44 258.598 70.592 258.07 70.896C257.542 71.2 257.11 71.648 256.774 72.24C256.454 72.816 256.294 73.504 256.294 74.304C256.294 75.104 256.454 75.808 256.774 76.416C257.11 77.008 257.542 77.464 258.07 77.784C258.614 78.104 259.19 78.264 259.798 78.264C260.422 78.264 261.006 78.112 261.55 77.808C262.094 77.488 262.526 77.04 262.846 76.464C263.166 75.872 263.326 75.168 263.326 74.352ZM269.128 74.304C269.128 72.96 269.392 71.768 269.92 70.728C270.464 69.688 271.192 68.888 272.104 68.328C273.032 67.768 274.064 67.488 275.2 67.488C276.192 67.488 277.056 67.688 277.792 68.088C278.544 68.488 279.144 68.992 279.592 69.6V67.704H282.976V81H279.592V79.056C279.16 79.68 278.56 80.2 277.792 80.616C277.04 81.016 276.168 81.216 275.176 81.216C274.056 81.216 273.032 80.928 272.104 80.352C271.192 79.776 270.464 78.968 269.92 77.928C269.392 76.872 269.128 75.664 269.128 74.304ZM279.592 74.352C279.592 73.536 279.432 72.84 279.112 72.264C278.792 71.672 278.36 71.224 277.816 70.92C277.272 70.6 276.688 70.44 276.064 70.44C275.44 70.44 274.864 70.592 274.336 70.896C273.808 71.2 273.376 71.648 273.04 72.24C272.72 72.816 272.56 73.504 272.56 74.304C272.56 75.104 272.72 75.808 273.04 76.416C273.376 77.008 273.808 77.464 274.336 77.784C274.88 78.104 275.456 78.264 276.064 78.264C276.688 78.264 277.272 78.112 277.816 77.808C278.36 77.488 278.792 77.04 279.112 76.464C279.432 75.872 279.592 75.168 279.592 74.352ZM289.618 69.624C290.05 69.016 290.642 68.512 291.394 68.112C292.162 67.696 293.034 67.488 294.01 67.488C295.146 67.488 296.17 67.768 297.082 68.328C298.01 68.888 298.738 69.688 299.266 70.728C299.81 71.752 300.082 72.944 300.082 74.304C300.082 75.664 299.81 76.872 299.266 77.928C298.738 78.968 298.01 79.776 297.082 80.352C296.17 80.928 295.146 81.216 294.01 81.216C293.034 81.216 292.17 81.016 291.418 80.616C290.682 80.216 290.082 79.712 289.618 79.104V87.336H286.258V67.704H289.618V69.624ZM296.65 74.304C296.65 73.504 296.482 72.816 296.146 72.24C295.826 71.648 295.394 71.2 294.85 70.896C294.322 70.592 293.746 70.44 293.122 70.44C292.514 70.44 291.938 70.6 291.394 70.92C290.866 71.224 290.434 71.672 290.098 72.264C289.778 72.856 289.618 73.552 289.618 74.352C289.618 75.152 289.778 75.848 290.098 76.44C290.434 77.032 290.866 77.488 291.394 77.808C291.938 78.112 292.514 78.264 293.122 78.264C293.746 78.264 294.322 78.104 294.85 77.784C295.394 77.464 295.826 77.008 296.146 76.416C296.482 75.824 296.65 75.12 296.65 74.304ZM301.659 74.304C301.659 72.96 301.923 71.768 302.451 70.728C302.995 69.688 303.723 68.888 304.635 68.328C305.563 67.768 306.595 67.488 307.731 67.488C308.723 67.488 309.587 67.688 310.323 68.088C311.075 68.488 311.675 68.992 312.123 69.6V67.704H315.507V81H312.123V79.056C311.691 79.68 311.091 80.2 310.323 80.616C309.571 81.016 308.699 81.216 307.707 81.216C306.587 81.216 305.563 80.928 304.635 80.352C303.723 79.776 302.995 78.968 302.451 77.928C301.923 76.872 301.659 75.664 301.659 74.304ZM312.123 74.352C312.123 73.536 311.963 72.84 311.643 72.264C311.323 71.672 310.891 71.224 310.347 70.92C309.803 70.6 309.219 70.44 308.595 70.44C307.971 70.44 307.395 70.592 306.867 70.896C306.339 71.2 305.907 71.648 305.571 72.24C305.251 72.816 305.091 73.504 305.091 74.304C305.091 75.104 305.251 75.808 305.571 76.416C305.907 77.008 306.339 77.464 306.867 77.784C307.411 78.104 307.987 78.264 308.595 78.264C309.219 78.264 309.803 78.112 310.347 77.808C310.891 77.488 311.323 77.04 311.643 76.464C311.963 75.872 312.123 75.168 312.123 74.352ZM322.701 70.464V76.896C322.701 77.344 322.805 77.672 323.013 77.88C323.237 78.072 323.605 78.168 324.117 78.168H325.677V81H323.565C320.733 81 319.317 79.624 319.317 76.872V70.464H317.733V67.704H319.317V64.416H322.701V67.704H325.677V70.464H322.701ZM332.948 74.304C332.948 72.96 333.212 71.768 333.74 70.728C334.284 69.688 335.02 68.888 335.948 68.328C336.876 67.768 337.908 67.488 339.044 67.488C339.908 67.488 340.732 67.68 341.516 68.064C342.3 68.432 342.924 68.928 343.388 69.552V63.24H346.796V81H343.388V79.032C342.972 79.688 342.388 80.216 341.636 80.616C340.884 81.016 340.012 81.216 339.02 81.216C337.9 81.216 336.876 80.928 335.948 80.352C335.02 79.776 334.284 78.968 333.74 77.928C333.212 76.872 332.948 75.664 332.948 74.304ZM343.412 74.352C343.412 73.536 343.252 72.84 342.932 72.264C342.612 71.672 342.18 71.224 341.636 70.92C341.092 70.6 340.508 70.44 339.884 70.44C339.26 70.44 338.684 70.592 338.156 70.896C337.628 71.2 337.196 71.648 336.86 72.24C336.54 72.816 336.38 73.504 336.38 74.304C336.38 75.104 336.54 75.808 336.86 76.416C337.196 77.008 337.628 77.464 338.156 77.784C338.7 78.104 339.276 78.264 339.884 78.264C340.508 78.264 341.092 78.112 341.636 77.808C342.18 77.488 342.612 77.04 342.932 76.464C343.252 75.872 343.412 75.168 343.412 74.352ZM351.782 66.12C351.19 66.12 350.694 65.936 350.294 65.568C349.91 65.184 349.718 64.712 349.718 64.152C349.718 63.592 349.91 63.128 350.294 62.76C350.694 62.376 351.19 62.184 351.782 62.184C352.374 62.184 352.862 62.376 353.246 62.76C353.646 63.128 353.846 63.592 353.846 64.152C353.846 64.712 353.646 65.184 353.246 65.568C352.862 65.936 352.374 66.12 351.782 66.12ZM353.438 67.704V81H350.078V67.704H353.438ZM360.118 63.24V81H356.758V63.24H360.118ZM362.573 74.304C362.573 72.96 362.837 71.768 363.365 70.728C363.909 69.688 364.637 68.888 365.549 68.328C366.477 67.768 367.509 67.488 368.645 67.488C369.637 67.488 370.501 67.688 371.237 68.088C371.989 68.488 372.589 68.992 373.037 69.6V67.704H376.421V81H373.037V79.056C372.605 79.68 372.005 80.2 371.237 80.616C370.485 81.016 369.613 81.216 368.621 81.216C367.501 81.216 366.477 80.928 365.549 80.352C364.637 79.776 363.909 78.968 363.365 77.928C362.837 76.872 362.573 75.664 362.573 74.304ZM373.037 74.352C373.037 73.536 372.877 72.84 372.557 72.264C372.237 71.672 371.805 71.224 371.261 70.92C370.717 70.6 370.133 70.44 369.509 70.44C368.885 70.44 368.309 70.592 367.781 70.896C367.253 71.2 366.821 71.648 366.485 72.24C366.165 72.816 366.005 73.504 366.005 74.304C366.005 75.104 366.165 75.808 366.485 76.416C366.821 77.008 367.253 77.464 367.781 77.784C368.325 78.104 368.901 78.264 369.509 78.264C370.133 78.264 370.717 78.112 371.261 77.808C371.805 77.488 372.237 77.04 372.557 76.464C372.877 75.872 373.037 75.168 373.037 74.352ZM387.575 81L383.063 75.336V81H379.703V63.24H383.063V73.344L387.527 67.704H391.895L386.039 74.376L391.943 81H387.575ZM406.271 67.704V81H402.887V79.32C402.455 79.896 401.887 80.352 401.183 80.688C400.495 81.008 399.743 81.168 398.927 81.168C397.887 81.168 396.967 80.952 396.167 80.52C395.367 80.072 394.735 79.424 394.271 78.576C393.823 77.712 393.599 76.688 393.599 75.504V67.704H396.959V75.024C396.959 76.08 397.223 76.896 397.751 77.472C398.279 78.032 398.999 78.312 399.911 78.312C400.839 78.312 401.567 78.032 402.095 77.472C402.623 76.896 402.887 76.08 402.887 75.024V67.704H406.271ZM417.458 81L412.946 75.336V81H409.586V63.24H412.946V73.344L417.41 67.704H421.778L415.922 74.376L421.826 81H417.458ZM422.737 74.304C422.737 72.96 423.001 71.768 423.529 70.728C424.073 69.688 424.801 68.888 425.713 68.328C426.641 67.768 427.673 67.488 428.809 67.488C429.801 67.488 430.665 67.688 431.401 68.088C432.153 68.488 432.753 68.992 433.201 69.6V67.704H436.585V81H433.201V79.056C432.769 79.68 432.169 80.2 431.401 80.616C430.649 81.016 429.777 81.216 428.785 81.216C427.665 81.216 426.641 80.928 425.713 80.352C424.801 79.776 424.073 78.968 423.529 77.928C423.001 76.872 422.737 75.664 422.737 74.304ZM433.201 74.352C433.201 73.536 433.041 72.84 432.721 72.264C432.401 71.672 431.969 71.224 431.425 70.92C430.881 70.6 430.297 70.44 429.673 70.44C429.049 70.44 428.473 70.592 427.945 70.896C427.417 71.2 426.985 71.648 426.649 72.24C426.329 72.816 426.169 73.504 426.169 74.304C426.169 75.104 426.329 75.808 426.649 76.416C426.985 77.008 427.417 77.464 427.945 77.784C428.489 78.104 429.065 78.264 429.673 78.264C430.297 78.264 430.881 78.112 431.425 77.808C431.969 77.488 432.401 77.04 432.721 76.464C433.041 75.872 433.201 75.168 433.201 74.352ZM447.235 67.512C448.819 67.512 450.099 68.016 451.075 69.024C452.051 70.016 452.539 71.408 452.539 73.2V81H449.179V73.656C449.179 72.6 448.915 71.792 448.387 71.232C447.859 70.656 447.139 70.368 446.227 70.368C445.299 70.368 444.563 70.656 444.019 71.232C443.491 71.792 443.227 72.6 443.227 73.656V81H439.867V67.704H443.227V69.36C443.675 68.784 444.243 68.336 444.931 68.016C445.635 67.68 446.403 67.512 447.235 67.512ZM460.661 66.6V63.504H466.445V81H462.989V66.6H460.661ZM477.492 81L474.756 76.872L472.332 81H468.732L473.076 74.328L468.684 67.704H472.476L475.188 71.808L477.636 67.704H481.236L476.868 74.328L481.284 81H477.492Z" fill="#0F46A5"/>
<path d="M24.896 42.696C25.152 35.848 27.392 30.568 31.616 26.856C35.84 23.144 41.568 21.288 48.8 21.288C53.6 21.288 57.696 22.12 61.088 23.784C64.544 25.448 67.136 27.72 68.864 30.6C70.656 33.48 71.552 36.712 71.552 40.296C71.552 44.52 70.496 47.976 68.384 50.664C66.272 53.288 63.808 55.08 60.992 56.04V56.424C64.64 57.64 67.52 59.656 69.632 62.472C71.744 65.288 72.8 68.904 72.8 73.32C72.8 77.288 71.872 80.808 70.016 83.88C68.224 86.888 65.568 89.256 62.048 90.984C58.592 92.712 54.464 93.576 49.664 93.576C41.984 93.576 35.84 91.688 31.232 87.912C26.688 84.136 24.288 78.44 24.032 70.824H39.968C40.032 73.64 40.832 75.88 42.368 77.544C43.904 79.144 46.144 79.944 49.088 79.944C51.584 79.944 53.504 79.24 54.848 77.832C56.256 76.36 56.96 74.44 56.96 72.072C56.96 69 55.968 66.792 53.984 65.448C52.064 64.04 48.96 63.336 44.672 63.336H41.6V49.992H44.672C47.936 49.992 50.56 49.448 52.544 48.36C54.592 47.208 55.616 45.192 55.616 42.312C55.616 40.008 54.976 38.216 53.696 36.936C52.416 35.656 50.656 35.016 48.416 35.016C45.984 35.016 44.16 35.752 42.944 37.224C41.792 38.696 41.12 40.52 40.928 42.696H24.896Z" fill="#307DFB" fill-opacity="0.54"/>
<defs>
<filter id="filter0_d_76:155" x="0.5" y="0.5" width="666" height="123" filterUnits="userSpaceOnUse" color-interpolation-filters="sRGB">
<feFlood flood-opacity="0" result="BackgroundImageFix"/>
<feColorMatrix in="SourceAlpha" type="matrix" values="0 0 0 0 0 0 0 0 0 0 0 0 0 0 0 0 0 0 127 0" result="hardAlpha"/>
<feMorphology radius="2" operator="dilate" in="SourceAlpha" result="effect1_dropShadow_76:155"/>
<feOffset dy="4"/>
<feGaussianBlur stdDeviation="2"/>
<feComposite in2="hardAlpha" operator="out"/>
<feColorMatrix type="matrix" values="0 0 0 0 0 0 0 0 0 0 0 0 0 0 0 0 0 0 0.5 0"/>
<feBlend mode="normal" in2="BackgroundImageFix" result="effect1_dropShadow_76:155"/>
<feBlend mode="normal" in="SourceGraphic" in2="effect1_dropShadow_76:155" result="shape"/>
</filter>
</defs>
</svg>
