<svg width="400" height="614" viewBox="0 0 400 614" fill="none" xmlns="http://www.w3.org/2000/svg">
<rect y="14" width="400" height="600" rx="16" fill="#C4C4C4"/>
<rect y="14" width="400" height="600" rx="16" fill="#A7C8FD"/>
<mask id="mask0_205:297" style="mask-type:alpha" maskUnits="userSpaceOnUse" x="0" y="0" width="400" height="600">
<rect width="400" height="600" rx="16" fill="#C4C4C4"/>
</mask>
<g mask="url(#mask0_205:297)">
<path d="M108.183 500.802C108.183 500.802 79.0228 534.822 85.5028 588.282C91.9828 641.742 103.323 763.242 103.323 763.242L111.423 978.702L163.263 975.462L171.363 792.402L197.283 644.982L266.943 816.702C266.943 816.702 300.963 977.082 302.583 977.082C304.203 977.082 351.183 972.222 351.183 972.222L328.503 782.682C328.503 782.682 292.863 507.282 271.803 502.422C250.743 497.562 108.183 500.802 108.183 500.802Z" fill="#2F2E41"/>
<path d="M147.873 185.712C147.873 185.712 162.453 226.212 151.113 248.892C139.773 271.572 168.933 297.492 168.933 297.492C168.933 297.492 245.072 258.612 235.352 239.172C225.632 219.732 209.432 193.812 212.672 177.612L147.873 185.712Z" fill="#FFB8B8"/>
<path d="M176.223 201.102C204.853 201.102 228.062 177.893 228.062 149.262C228.062 120.632 204.853 97.4224 176.223 97.4224C147.592 97.4224 124.383 120.632 124.383 149.262C124.383 177.893 147.592 201.102 176.223 201.102Z" fill="#FFB8B8"/>
<path d="M138.962 246.462C138.962 246.462 190.977 289.746 229.77 228.414L270.182 251.322L291.242 497.562C291.242 497.562 172.982 565.602 116.282 507.282L124.382 278.862L138.962 246.462Z" fill="#D0CDE1"/>
<path d="M155.297 222.215L82.2626 270.761L108.183 390.641L74.1626 576.941L129.243 494.321L155.297 222.215Z" fill="#575A89"/>
<path d="M219.845 208.703L237.782 220.543L310.682 246.463L299.342 447.342L330.122 576.942L286.382 599.622C286.382 599.622 278.282 538.062 228.062 507.282C177.843 476.502 208.387 217.923 219.845 208.703Z" fill="#575A89"/>
<path d="M98.4626 523.482L119.523 538.062C119.523 538.062 92.7926 566.412 87.9326 561.552C86.5261 560.201 85.4341 558.558 84.7341 556.738C84.0342 554.918 83.7435 552.966 83.8826 551.022L79.0226 539.682L98.4626 523.482Z" fill="#FFB8B8"/>
<path d="M238.462 520.33L231.303 531.582C231.303 531.582 210.243 541.302 215.103 547.782C219.963 554.262 260.462 568.842 268.562 554.262L276.662 539.682L238.462 520.33Z" fill="#FFB8B8"/>
<path d="M91.9827 269.142L80.6427 270.762L62.0127 391.452C62.0127 391.452 54.7227 413.322 62.8227 465.162C70.9227 517.002 78.9439 550.759 78.9439 550.759L114.663 525.102L98.4627 482.982L119.523 329.082L91.9827 269.142Z" fill="#575A89"/>
<path d="M284.762 243.222L310.682 246.462C310.682 246.462 339.842 277.242 344.702 309.642C349.562 342.042 347.942 434.382 347.942 434.382L273.422 552.642L232.922 523.482L289.622 423.042L262.082 303.162L284.762 243.222Z" fill="#575A89"/>
<path d="M225.658 102.376C217.819 89.6459 205.548 80.2654 191.208 76.0396L180.675 84.4657L184.77 74.6376C181.326 74.1123 177.841 73.9109 174.36 74.036L164.883 86.2204L168.806 74.4533C160.582 75.4752 152.66 78.1899 145.538 82.4262C138.416 86.6624 132.25 92.3283 127.427 99.0667C115.365 116.458 113.33 140.645 125.193 158.172C128.449 148.164 132.402 138.774 135.659 128.766C138.218 129.115 140.812 129.128 143.375 128.804L147.337 119.559L148.443 128.413C160.724 127.343 178.938 124.994 190.581 122.842L189.449 116.05L196.221 121.694C199.788 120.873 201.906 120.128 201.731 119.559C210.39 133.518 218.969 142.433 227.627 156.392C230.914 136.703 236.716 120.337 225.658 102.376Z" fill="#2F2E41"/>
<path d="M222.787 154.653C224.725 154.653 226.296 151.51 226.296 147.634C226.296 143.758 224.725 140.615 222.787 140.615C220.849 140.615 219.278 143.758 219.278 147.634C219.278 151.51 220.849 154.653 222.787 154.653Z" fill="#FFB8B8"/>
</g>
<rect y="524" width="400" height="90" rx="16" fill="#307DFB"/>
<path d="M100.078 576.276H92.2941L91.0061 580H86.8901L93.9181 560.428H98.4821L105.51 580H101.366L100.078 576.276ZM99.0141 573.14L96.1861 564.964L93.3581 573.14H99.0141ZM112.057 559.28V580H108.137V559.28H112.057ZM130.35 571.908C130.35 572.468 130.313 572.972 130.238 573.42H118.898C118.991 574.54 119.383 575.417 120.074 576.052C120.765 576.687 121.614 577.004 122.622 577.004C124.078 577.004 125.114 576.379 125.73 575.128H129.958C129.51 576.621 128.651 577.853 127.382 578.824C126.113 579.776 124.554 580.252 122.706 580.252C121.213 580.252 119.869 579.925 118.674 579.272C117.498 578.6 116.574 577.657 115.902 576.444C115.249 575.231 114.922 573.831 114.922 572.244C114.922 570.639 115.249 569.229 115.902 568.016C116.555 566.803 117.47 565.869 118.646 565.216C119.822 564.563 121.175 564.236 122.706 564.236C124.181 564.236 125.497 564.553 126.654 565.188C127.83 565.823 128.735 566.728 129.37 567.904C130.023 569.061 130.35 570.396 130.35 571.908ZM126.29 570.788C126.271 569.78 125.907 568.977 125.198 568.38C124.489 567.764 123.621 567.456 122.594 567.456C121.623 567.456 120.802 567.755 120.13 568.352C119.477 568.931 119.075 569.743 118.926 570.788H126.29ZM141.779 580L138.587 575.184L135.759 580H131.559L136.627 572.216L131.503 564.488H135.927L139.091 569.276L141.947 564.488H146.147L141.051 572.216L146.203 580H141.779ZM147.324 572.188C147.324 570.62 147.632 569.229 148.248 568.016C148.883 566.803 149.732 565.869 150.796 565.216C151.879 564.563 153.083 564.236 154.408 564.236C155.566 564.236 156.574 564.469 157.432 564.936C158.31 565.403 159.01 565.991 159.532 566.7V564.488H163.48V580H159.532V577.732C159.028 578.46 158.328 579.067 157.432 579.552C156.555 580.019 155.538 580.252 154.38 580.252C153.074 580.252 151.879 579.916 150.796 579.244C149.732 578.572 148.883 577.629 148.248 576.416C147.632 575.184 147.324 573.775 147.324 572.188ZM159.532 572.244C159.532 571.292 159.346 570.48 158.972 569.808C158.599 569.117 158.095 568.595 157.46 568.24C156.826 567.867 156.144 567.68 155.416 567.68C154.688 567.68 154.016 567.857 153.4 568.212C152.784 568.567 152.28 569.089 151.888 569.78C151.515 570.452 151.328 571.255 151.328 572.188C151.328 573.121 151.515 573.943 151.888 574.652C152.28 575.343 152.784 575.875 153.4 576.248C154.035 576.621 154.707 576.808 155.416 576.808C156.144 576.808 156.826 576.631 157.46 576.276C158.095 575.903 158.599 575.38 158.972 574.708C159.346 574.017 159.532 573.196 159.532 572.244ZM175.905 564.264C177.753 564.264 179.246 564.852 180.385 566.028C181.524 567.185 182.093 568.809 182.093 570.9V580H178.173V571.432C178.173 570.2 177.865 569.257 177.249 568.604C176.633 567.932 175.793 567.596 174.729 567.596C173.646 567.596 172.788 567.932 172.153 568.604C171.537 569.257 171.229 570.2 171.229 571.432V580H167.309V564.488H171.229V566.42C171.752 565.748 172.414 565.225 173.217 564.852C174.038 564.46 174.934 564.264 175.905 564.264ZM184.813 572.188C184.813 570.62 185.121 569.229 185.737 568.016C186.371 566.803 187.23 565.869 188.313 565.216C189.395 564.563 190.599 564.236 191.925 564.236C192.933 564.236 193.894 564.46 194.809 564.908C195.723 565.337 196.451 565.916 196.993 566.644V559.28H200.969V580H196.993V577.704C196.507 578.469 195.826 579.085 194.949 579.552C194.071 580.019 193.054 580.252 191.897 580.252C190.59 580.252 189.395 579.916 188.313 579.244C187.23 578.572 186.371 577.629 185.737 576.416C185.121 575.184 184.813 573.775 184.813 572.188ZM197.021 572.244C197.021 571.292 196.834 570.48 196.461 569.808C196.087 569.117 195.583 568.595 194.949 568.24C194.314 567.867 193.633 567.68 192.905 567.68C192.177 567.68 191.505 567.857 190.889 568.212C190.273 568.567 189.769 569.089 189.377 569.78C189.003 570.452 188.817 571.255 188.817 572.188C188.817 573.121 189.003 573.943 189.377 574.652C189.769 575.343 190.273 575.875 190.889 576.248C191.523 576.621 192.195 576.808 192.905 576.808C193.633 576.808 194.314 576.631 194.949 576.276C195.583 575.903 196.087 575.38 196.461 574.708C196.834 574.017 197.021 573.196 197.021 572.244ZM219.217 571.908C219.217 572.468 219.18 572.972 219.105 573.42H207.765C207.859 574.54 208.251 575.417 208.941 576.052C209.632 576.687 210.481 577.004 211.489 577.004C212.945 577.004 213.981 576.379 214.597 575.128H218.825C218.377 576.621 217.519 577.853 216.249 578.824C214.98 579.776 213.421 580.252 211.573 580.252C210.08 580.252 208.736 579.925 207.541 579.272C206.365 578.6 205.441 577.657 204.769 576.444C204.116 575.231 203.789 573.831 203.789 572.244C203.789 570.639 204.116 569.229 204.769 568.016C205.423 566.803 206.337 565.869 207.513 565.216C208.689 564.563 210.043 564.236 211.573 564.236C213.048 564.236 214.364 564.553 215.521 565.188C216.697 565.823 217.603 566.728 218.237 567.904C218.891 569.061 219.217 570.396 219.217 571.908ZM215.157 570.788C215.139 569.78 214.775 568.977 214.065 568.38C213.356 567.764 212.488 567.456 211.461 567.456C210.491 567.456 209.669 567.755 208.997 568.352C208.344 568.931 207.943 569.743 207.793 570.788H215.157ZM225.998 566.896C226.502 566.075 227.156 565.431 227.958 564.964C228.78 564.497 229.713 564.264 230.758 564.264V568.38H229.722C228.49 568.38 227.557 568.669 226.922 569.248C226.306 569.827 225.998 570.835 225.998 572.272V580H222.078V564.488H225.998V566.896ZM254.323 566.504C254.323 567.549 254.071 568.529 253.567 569.444C253.081 570.359 252.307 571.096 251.243 571.656C250.197 572.216 248.872 572.496 247.267 572.496H243.991V580H240.071V560.456H247.267C248.779 560.456 250.067 560.717 251.131 561.24C252.195 561.763 252.988 562.481 253.511 563.396C254.052 564.311 254.323 565.347 254.323 566.504ZM247.099 569.332C248.181 569.332 248.984 569.089 249.507 568.604C250.029 568.1 250.291 567.4 250.291 566.504C250.291 564.6 249.227 563.648 247.099 563.648H243.991V569.332H247.099ZM271.75 564.488V580H267.802V578.04C267.298 578.712 266.635 579.244 265.814 579.636C265.011 580.009 264.134 580.196 263.182 580.196C261.968 580.196 260.895 579.944 259.962 579.44C259.028 578.917 258.291 578.161 257.75 577.172C257.227 576.164 256.966 574.969 256.966 573.588V564.488H260.886V573.028C260.886 574.26 261.194 575.212 261.81 575.884C262.426 576.537 263.266 576.864 264.33 576.864C265.412 576.864 266.262 576.537 266.878 575.884C267.494 575.212 267.802 574.26 267.802 573.028V564.488H271.75ZM280.182 567.708V575.212C280.182 575.735 280.303 576.117 280.546 576.36C280.807 576.584 281.236 576.696 281.834 576.696H283.654V580H281.19C277.886 580 276.234 578.395 276.234 575.184V567.708H274.386V564.488H276.234V560.652H280.182V564.488H283.654V567.708H280.182ZM290.393 566.896C290.897 566.075 291.55 565.431 292.353 564.964C293.174 564.497 294.108 564.264 295.153 564.264V568.38H294.117C292.885 568.38 291.952 568.669 291.317 569.248C290.701 569.827 290.393 570.835 290.393 572.272V580H286.473V564.488H290.393V566.896ZM296.785 572.188C296.785 570.62 297.093 569.229 297.709 568.016C298.344 566.803 299.193 565.869 300.257 565.216C301.34 564.563 302.544 564.236 303.869 564.236C305.027 564.236 306.035 564.469 306.893 564.936C307.771 565.403 308.471 565.991 308.993 566.7V564.488H312.941V580H308.993V577.732C308.489 578.46 307.789 579.067 306.893 579.552C306.016 580.019 304.999 580.252 303.841 580.252C302.535 580.252 301.34 579.916 300.257 579.244C299.193 578.572 298.344 577.629 297.709 576.416C297.093 575.184 296.785 573.775 296.785 572.188ZM308.993 572.244C308.993 571.292 308.807 570.48 308.433 569.808C308.06 569.117 307.556 568.595 306.921 568.24C306.287 567.867 305.605 567.68 304.877 567.68C304.149 567.68 303.477 567.857 302.861 568.212C302.245 568.567 301.741 569.089 301.349 569.78C300.976 570.452 300.789 571.255 300.789 572.188C300.789 573.121 300.976 573.943 301.349 574.652C301.741 575.343 302.245 575.875 302.861 576.248C303.496 576.621 304.168 576.808 304.877 576.808C305.605 576.808 306.287 576.631 306.921 576.276C307.556 575.903 308.06 575.38 308.433 574.708C308.807 574.017 308.993 573.196 308.993 572.244Z" fill="white"/>
</svg>
