<svg width="400" height="600" viewBox="0 0 400 600" fill="none" xmlns="http://www.w3.org/2000/svg">
<rect width="400" height="600" rx="16" fill="#A7C8FD"/>
<path d="M151.36 57.7999C151.36 57.7999 123.711 47.9255 105.938 87.423C88.1636 126.92 60.5154 170.368 60.5154 170.368L76.3144 174.318C76.3144 174.318 80.2641 146.669 90.1385 142.719L86.1888 178.267C86.1888 178.267 204.681 219.74 258.003 174.318L256.028 160.493C256.028 160.493 263.927 162.468 263.927 174.318L269.852 168.393C269.852 168.393 263.928 156.544 246.154 140.745C234.488 130.375 230.479 110.646 229.101 98.312C228.069 88.0125 223.948 78.2654 217.279 70.349C205.468 56.66 183.945 42.1106 151.36 57.7999Z" fill="#2F2E41"/>
<path d="M319.165 281.301C319.165 281.301 371.194 325.678 378.845 351.692C386.496 377.706 349.77 380.767 349.77 380.767L270.198 388.418C270.198 388.418 268.668 425.144 254.895 429.734C241.123 434.325 252.099 369.003 252.099 369.003L329.877 347.101L294.682 310.376L319.165 281.301Z" fill="#FBBEBE"/>
<path d="M75.8576 327.208L69.7367 408.311L36.0714 546.033C36.0714 546.033 7.48585 595.97 33.4999 597.5C59.514 599.03 55.9645 550.623 55.9645 550.623L104.932 420.553L109.523 331.799L75.8576 327.208Z" fill="#FBBEBE"/>
<path d="M161.551 184.896C189.44 184.896 212.049 162.287 212.049 134.398C212.049 106.509 189.44 83.9002 161.551 83.9002C133.662 83.9002 111.053 106.509 111.053 134.398C111.053 162.287 133.662 184.896 161.551 184.896Z" fill="#FBBEBE"/>
<path d="M138.597 158.882C138.597 158.882 156.96 224.682 127.886 241.515C98.811 258.348 201.337 270.59 228.881 220.092C228.881 220.092 179.914 203.259 193.686 158.882H138.597Z" fill="#FBBEBE"/>
<path d="M103.402 249.166L94.2203 246.106C94.2203 246.106 75.8574 253.757 75.8574 267.529C75.8574 281.301 72.7969 336.39 72.7969 336.39L114.113 340.981L103.402 249.166Z" fill="#307DFB"/>
<path d="M283.239 554.298C226.749 562.666 144.415 569.424 59.0297 557.68C59.0227 556.836 59.0227 556.014 59.0227 555.212C59.0227 550.437 59.2056 545.716 59.5712 541.049C63.9453 483.581 93.551 435.671 105.007 419.068C105.583 418.224 106.118 417.464 106.596 416.789C108.445 414.194 109.521 412.823 109.521 412.823C109.521 412.823 198.275 411.374 244.182 429.736C246.395 430.665 248.421 431.99 250.159 433.645C267.276 449.44 277.332 500.719 283.239 554.298Z" fill="#2F2E41"/>
<path d="M250.305 227.743C250.305 227.743 270.198 217.031 290.091 239.985L329.877 285.892L299.273 319.557L241.124 284.362L250.305 227.743Z" fill="#307DFB"/>
<path d="M106.984 134.718C124.86 121.781 139.331 106.879 148.903 89.1532C148.903 89.1532 181.71 125.605 201.759 127.428C221.807 129.25 203.581 83.6854 203.581 83.6854L167.129 74.5724L132.5 78.2176L105.161 96.4436L106.984 134.718Z" fill="#2F2E41"/>
<path d="M221.23 217.031C221.23 217.031 199.816 250.89 135.541 234.726L99.0681 244.771L94.2205 246.106C94.2205 246.106 98.8112 337.92 111.053 354.753C123.295 371.585 120.235 380.767 117.174 382.297C114.114 383.827 108.437 380.857 111.053 388.418C119.418 397.751 121.765 391.479 115.644 396.069C109.523 400.66 106.462 417.493 106.462 417.493L250.305 435.856C250.305 435.856 245.714 376.176 257.956 345.571C270.198 314.967 273.259 302.725 273.259 302.725L264.077 226.213L221.23 217.031Z" fill="#307DFB"/>
<rect y="506" width="400" height="90" rx="16" fill="#949393"/>
<rect y="506" width="400" height="90" rx="16" fill="#307DFB"/>
<path d="M104.322 557.276H96.5383L95.2503 561H91.1343L98.1623 541.428H102.726L109.754 561H105.61L104.322 557.276ZM103.258 554.14L100.43 545.964L97.6022 554.14H103.258ZM116.301 540.28V561H112.381V540.28H116.301ZM134.594 552.908C134.594 553.468 134.557 553.972 134.482 554.42H123.142C123.236 555.54 123.628 556.417 124.318 557.052C125.009 557.687 125.858 558.004 126.866 558.004C128.322 558.004 129.358 557.379 129.974 556.128H134.202C133.754 557.621 132.896 558.853 131.626 559.824C130.357 560.776 128.798 561.252 126.95 561.252C125.457 561.252 124.113 560.925 122.918 560.272C121.742 559.6 120.818 558.657 120.146 557.444C119.493 556.231 119.166 554.831 119.166 553.244C119.166 551.639 119.493 550.229 120.146 549.016C120.8 547.803 121.714 546.869 122.89 546.216C124.066 545.563 125.42 545.236 126.95 545.236C128.425 545.236 129.741 545.553 130.898 546.188C132.074 546.823 132.98 547.728 133.614 548.904C134.268 550.061 134.594 551.396 134.594 552.908ZM130.534 551.788C130.516 550.78 130.152 549.977 129.442 549.38C128.733 548.764 127.865 548.456 126.838 548.456C125.868 548.456 125.046 548.755 124.374 549.352C123.721 549.931 123.32 550.743 123.17 551.788H130.534ZM146.023 561L142.831 556.184L140.003 561H135.803L140.871 553.216L135.747 545.488H140.171L143.335 550.276L146.191 545.488H150.391L145.295 553.216L150.447 561H146.023ZM151.569 553.188C151.569 551.62 151.877 550.229 152.493 549.016C153.127 547.803 153.977 546.869 155.041 546.216C156.123 545.563 157.327 545.236 158.653 545.236C159.81 545.236 160.818 545.469 161.677 545.936C162.554 546.403 163.254 546.991 163.777 547.7V545.488H167.725V561H163.777V558.732C163.273 559.46 162.573 560.067 161.677 560.552C160.799 561.019 159.782 561.252 158.625 561.252C157.318 561.252 156.123 560.916 155.041 560.244C153.977 559.572 153.127 558.629 152.493 557.416C151.877 556.184 151.569 554.775 151.569 553.188ZM163.777 553.244C163.777 552.292 163.59 551.48 163.217 550.808C162.843 550.117 162.339 549.595 161.705 549.24C161.07 548.867 160.389 548.68 159.661 548.68C158.933 548.68 158.261 548.857 157.645 549.212C157.029 549.567 156.525 550.089 156.133 550.78C155.759 551.452 155.573 552.255 155.573 553.188C155.573 554.121 155.759 554.943 156.133 555.652C156.525 556.343 157.029 556.875 157.645 557.248C158.279 557.621 158.951 557.808 159.661 557.808C160.389 557.808 161.07 557.631 161.705 557.276C162.339 556.903 162.843 556.38 163.217 555.708C163.59 555.017 163.777 554.196 163.777 553.244ZM180.149 545.264C181.997 545.264 183.49 545.852 184.629 547.028C185.768 548.185 186.337 549.809 186.337 551.9V561H182.417V552.432C182.417 551.2 182.109 550.257 181.493 549.604C180.877 548.932 180.037 548.596 178.973 548.596C177.89 548.596 177.032 548.932 176.397 549.604C175.781 550.257 175.473 551.2 175.473 552.432V561H171.553V545.488H175.473V547.42C175.996 546.748 176.658 546.225 177.461 545.852C178.282 545.46 179.178 545.264 180.149 545.264ZM189.057 553.188C189.057 551.62 189.365 550.229 189.981 549.016C190.615 547.803 191.474 546.869 192.557 546.216C193.639 545.563 194.843 545.236 196.169 545.236C197.177 545.236 198.138 545.46 199.053 545.908C199.967 546.337 200.695 546.916 201.237 547.644V540.28H205.213V561H201.237V558.704C200.751 559.469 200.07 560.085 199.193 560.552C198.315 561.019 197.298 561.252 196.141 561.252C194.834 561.252 193.639 560.916 192.557 560.244C191.474 559.572 190.615 558.629 189.981 557.416C189.365 556.184 189.057 554.775 189.057 553.188ZM201.265 553.244C201.265 552.292 201.078 551.48 200.705 550.808C200.331 550.117 199.827 549.595 199.193 549.24C198.558 548.867 197.877 548.68 197.149 548.68C196.421 548.68 195.749 548.857 195.133 549.212C194.517 549.567 194.013 550.089 193.621 550.78C193.247 551.452 193.061 552.255 193.061 553.188C193.061 554.121 193.247 554.943 193.621 555.652C194.013 556.343 194.517 556.875 195.133 557.248C195.767 557.621 196.439 557.808 197.149 557.808C197.877 557.808 198.558 557.631 199.193 557.276C199.827 556.903 200.331 556.38 200.705 555.708C201.078 555.017 201.265 554.196 201.265 553.244ZM212.961 547.896C213.465 547.075 214.119 546.431 214.921 545.964C215.743 545.497 216.676 545.264 217.721 545.264V549.38H216.685C215.453 549.38 214.52 549.669 213.885 550.248C213.269 550.827 212.961 551.835 212.961 553.272V561H209.041V545.488H212.961V547.896ZM219.354 553.188C219.354 551.62 219.662 550.229 220.278 549.016C220.912 547.803 221.762 546.869 222.826 546.216C223.908 545.563 225.112 545.236 226.438 545.236C227.595 545.236 228.603 545.469 229.462 545.936C230.339 546.403 231.039 546.991 231.562 547.7V545.488H235.51V561H231.562V558.732C231.058 559.46 230.358 560.067 229.462 560.552C228.584 561.019 227.567 561.252 226.41 561.252C225.103 561.252 223.908 560.916 222.826 560.244C221.762 559.572 220.912 558.629 220.278 557.416C219.662 556.184 219.354 554.775 219.354 553.188ZM231.562 553.244C231.562 552.292 231.375 551.48 231.002 550.808C230.628 550.117 230.124 549.595 229.49 549.24C228.855 548.867 228.174 548.68 227.446 548.68C226.718 548.68 226.046 548.857 225.43 549.212C224.814 549.567 224.31 550.089 223.918 550.78C223.544 551.452 223.358 552.255 223.358 553.188C223.358 554.121 223.544 554.943 223.918 555.652C224.31 556.343 224.814 556.875 225.43 557.248C226.064 557.621 226.736 557.808 227.446 557.808C228.174 557.808 228.855 557.631 229.49 557.276C230.124 556.903 230.628 556.38 231.002 555.708C231.375 555.017 231.562 554.196 231.562 553.244ZM260.262 547.504C260.262 548.549 260.01 549.529 259.506 550.444C259.021 551.359 258.246 552.096 257.182 552.656C256.137 553.216 254.811 553.496 253.206 553.496H249.93V561H246.01V541.456H253.206C254.718 541.456 256.006 541.717 257.07 542.24C258.134 542.763 258.927 543.481 259.45 544.396C259.991 545.311 260.262 546.347 260.262 547.504ZM253.038 550.332C254.121 550.332 254.923 550.089 255.446 549.604C255.969 549.1 256.23 548.4 256.23 547.504C256.23 545.6 255.166 544.648 253.038 544.648H249.93V550.332H253.038ZM277.689 545.488V561H273.741V559.04C273.237 559.712 272.575 560.244 271.753 560.636C270.951 561.009 270.073 561.196 269.121 561.196C267.908 561.196 266.835 560.944 265.901 560.44C264.968 559.917 264.231 559.161 263.689 558.172C263.167 557.164 262.905 555.969 262.905 554.588V545.488H266.825V554.028C266.825 555.26 267.133 556.212 267.749 556.884C268.365 557.537 269.205 557.864 270.269 557.864C271.352 557.864 272.201 557.537 272.817 556.884C273.433 556.212 273.741 555.26 273.741 554.028V545.488H277.689ZM286.121 548.708V556.212C286.121 556.735 286.242 557.117 286.485 557.36C286.746 557.584 287.176 557.696 287.773 557.696H289.593V561H287.129C283.825 561 282.173 559.395 282.173 556.184V548.708H280.325V545.488H282.173V541.652H286.121V545.488H289.593V548.708H286.121ZM296.332 547.896C296.836 547.075 297.49 546.431 298.292 545.964C299.114 545.497 300.047 545.264 301.092 545.264V549.38H300.056C298.824 549.38 297.891 549.669 297.256 550.248C296.64 550.827 296.332 551.835 296.332 553.272V561H292.412V545.488H296.332V547.896ZM305.721 543.64C305.03 543.64 304.451 543.425 303.985 542.996C303.537 542.548 303.313 541.997 303.313 541.344C303.313 540.691 303.537 540.149 303.985 539.72C304.451 539.272 305.03 539.048 305.721 539.048C306.411 539.048 306.981 539.272 307.429 539.72C307.895 540.149 308.129 540.691 308.129 541.344C308.129 541.997 307.895 542.548 307.429 542.996C306.981 543.425 306.411 543.64 305.721 543.64ZM307.653 545.488V561H303.733V545.488H307.653Z" fill="white"/>
</svg>
