<svg width="400" height="614" viewBox="0 0 400 614" fill="none" xmlns="http://www.w3.org/2000/svg">
<rect y="14" width="400" height="600" rx="16" fill="#A7C8FD"/>
<mask id="mask0_205:299" style="mask-type:alpha" maskUnits="userSpaceOnUse" x="0" y="0" width="400" height="600">
<rect width="400" height="600" rx="16" fill="#C4C4C4"/>
</mask>
<g mask="url(#mask0_205:299)">
<path d="M108.183 500.802C108.183 500.802 79.0228 534.822 85.5028 588.282C91.9828 641.742 103.323 763.242 103.323 763.242L111.423 978.702L163.263 975.462L171.363 792.402L197.283 644.982L266.943 816.702C266.943 816.702 300.963 977.082 302.583 977.082C304.203 977.082 351.183 972.222 351.183 972.222L328.503 782.682C328.503 782.682 292.863 507.282 271.803 502.422C250.743 497.562 108.183 500.802 108.183 500.802Z" fill="#2F2E41"/>
<path d="M147.873 185.712C147.873 185.712 162.453 226.212 151.113 248.892C139.773 271.572 168.933 297.492 168.933 297.492C168.933 297.492 245.072 258.612 235.352 239.172C225.632 219.732 209.432 193.812 212.672 177.612L147.873 185.712Z" fill="#FFB8B8"/>
<path d="M176.223 201.102C204.853 201.102 228.062 177.893 228.062 149.262C228.062 120.632 204.853 97.4224 176.223 97.4224C147.592 97.4224 124.383 120.632 124.383 149.262C124.383 177.893 147.592 201.102 176.223 201.102Z" fill="#FFB8B8"/>
<path d="M138.962 246.462C138.962 246.462 190.977 289.746 229.77 228.414L270.182 251.322L291.242 497.562C291.242 497.562 172.982 565.602 116.282 507.282L124.382 278.862L138.962 246.462Z" fill="#D0CDE1"/>
<path d="M155.297 222.215L82.2626 270.761L108.183 390.641L74.1626 576.941L129.243 494.321L155.297 222.215Z" fill="#333333"/>
<path d="M219.845 208.703L237.783 220.543L310.683 246.463L299.343 447.342L330.123 576.942L286.383 599.622C286.383 599.622 278.283 538.062 228.063 507.282C177.843 476.502 208.387 217.923 219.845 208.703Z" fill="#333333"/>
<path d="M98.4627 523.482L119.523 538.062C119.523 538.062 92.7927 566.412 87.9327 561.552C86.5262 560.201 85.4342 558.558 84.7342 556.738C84.0343 554.918 83.7436 552.966 83.8827 551.022L79.0227 539.682L98.4627 523.482Z" fill="#FFB8B8"/>
<path d="M238.462 520.33L231.302 531.582C231.302 531.582 210.242 541.302 215.102 547.782C219.962 554.262 260.462 568.842 268.562 554.262L276.662 539.682L238.462 520.33Z" fill="#FFB8B8"/>
<path d="M91.9827 269.142L80.6427 270.762L62.0127 391.452C62.0127 391.452 54.7227 413.322 62.8227 465.162C70.9227 517.002 78.9439 550.759 78.9439 550.759L114.663 525.102L98.4627 482.982L119.523 329.082L91.9827 269.142Z" fill="#333333"/>
<path d="M284.762 243.222L310.682 246.462C310.682 246.462 339.842 277.242 344.702 309.642C349.562 342.042 347.942 434.382 347.942 434.382L273.422 552.642L232.922 523.482L289.622 423.042L262.082 303.162L284.762 243.222Z" fill="#333333"/>
<path d="M225.658 102.376C217.818 89.6459 205.548 80.2654 191.208 76.0396L180.675 84.4657L184.77 74.6376C181.326 74.1123 177.841 73.9109 174.36 74.036L164.883 86.2204L168.805 74.4533C160.582 75.4752 152.66 78.1899 145.538 82.4262C138.416 86.6624 132.249 92.3283 127.427 99.0667C115.365 116.458 113.33 140.645 125.193 158.172C128.449 148.164 132.402 138.774 135.658 128.766C138.218 129.115 140.812 129.128 143.374 128.804L147.337 119.559L148.443 128.413C160.724 127.343 178.938 124.994 190.58 122.842L189.448 116.05L196.221 121.694C199.788 120.873 201.906 120.128 201.731 119.559C210.389 133.518 218.969 142.433 227.627 156.392C230.914 136.703 236.716 120.337 225.658 102.376Z" fill="#2F2E41"/>
<path d="M222.787 154.653C224.725 154.653 226.296 151.51 226.296 147.634C226.296 143.758 224.725 140.615 222.787 140.615C220.849 140.615 219.278 143.758 219.278 147.634C219.278 151.51 220.849 154.653 222.787 154.653Z" fill="#FFB8B8"/>
</g>
<rect y="524" width="400" height="90" rx="16" fill="#949393"/>
<rect y="524" width="400" height="90" rx="16" fill="#307DFB"/>
<path d="M122.538 565.336C122.09 564.515 121.474 563.889 120.69 563.46C119.906 563.031 118.991 562.816 117.946 562.816C116.789 562.816 115.762 563.077 114.866 563.6C113.97 564.123 113.27 564.869 112.766 565.84C112.262 566.811 112.01 567.931 112.01 569.2C112.01 570.507 112.262 571.645 112.766 572.616C113.289 573.587 114.007 574.333 114.922 574.856C115.837 575.379 116.901 575.64 118.114 575.64C119.607 575.64 120.83 575.248 121.782 574.464C122.734 573.661 123.359 572.551 123.658 571.132H116.938V568.136H127.522V571.552C127.261 572.915 126.701 574.175 125.842 575.332C124.983 576.489 123.873 577.423 122.51 578.132C121.166 578.823 119.654 579.168 117.974 579.168C116.089 579.168 114.381 578.748 112.85 577.908C111.338 577.049 110.143 575.864 109.266 574.352C108.407 572.84 107.978 571.123 107.978 569.2C107.978 567.277 108.407 565.56 109.266 564.048C110.143 562.517 111.338 561.332 112.85 560.492C114.381 559.633 116.079 559.204 117.946 559.204C120.149 559.204 122.062 559.745 123.686 560.828C125.31 561.892 126.43 563.395 127.046 565.336H122.538ZM129.414 571.188C129.414 569.62 129.722 568.229 130.338 567.016C130.973 565.803 131.822 564.869 132.886 564.216C133.969 563.563 135.173 563.236 136.498 563.236C137.656 563.236 138.664 563.469 139.522 563.936C140.4 564.403 141.1 564.991 141.622 565.7V563.488H145.57V579H141.622V576.732C141.118 577.46 140.418 578.067 139.522 578.552C138.645 579.019 137.628 579.252 136.47 579.252C135.164 579.252 133.969 578.916 132.886 578.244C131.822 577.572 130.973 576.629 130.338 575.416C129.722 574.184 129.414 572.775 129.414 571.188ZM141.622 571.244C141.622 570.292 141.436 569.48 141.062 568.808C140.689 568.117 140.185 567.595 139.55 567.24C138.916 566.867 138.234 566.68 137.506 566.68C136.778 566.68 136.106 566.857 135.49 567.212C134.874 567.567 134.37 568.089 133.978 568.78C133.605 569.452 133.418 570.255 133.418 571.188C133.418 572.121 133.605 572.943 133.978 573.652C134.37 574.343 134.874 574.875 135.49 575.248C136.125 575.621 136.797 575.808 137.506 575.808C138.234 575.808 138.916 575.631 139.55 575.276C140.185 574.903 140.689 574.38 141.062 573.708C141.436 573.017 141.622 572.196 141.622 571.244ZM153.319 565.756C153.823 565.009 154.513 564.403 155.391 563.936C156.287 563.469 157.304 563.236 158.443 563.236C159.768 563.236 160.963 563.563 162.027 564.216C163.109 564.869 163.959 565.803 164.575 567.016C165.209 568.211 165.527 569.601 165.527 571.188C165.527 572.775 165.209 574.184 164.575 575.416C163.959 576.629 163.109 577.572 162.027 578.244C160.963 578.916 159.768 579.252 158.443 579.252C157.285 579.252 156.268 579.028 155.391 578.58C154.532 578.113 153.841 577.516 153.319 576.788V579H149.399V558.28H153.319V565.756ZM161.523 571.188C161.523 570.255 161.327 569.452 160.935 568.78C160.561 568.089 160.057 567.567 159.423 567.212C158.807 566.857 158.135 566.68 157.407 566.68C156.697 566.68 156.025 566.867 155.391 567.24C154.775 567.595 154.271 568.117 153.879 568.808C153.505 569.499 153.319 570.311 153.319 571.244C153.319 572.177 153.505 572.989 153.879 573.68C154.271 574.371 154.775 574.903 155.391 575.276C156.025 575.631 156.697 575.808 157.407 575.808C158.135 575.808 158.807 575.621 159.423 575.248C160.057 574.875 160.561 574.343 160.935 573.652C161.327 572.961 161.523 572.14 161.523 571.188ZM172.295 565.896C172.799 565.075 173.453 564.431 174.255 563.964C175.077 563.497 176.01 563.264 177.055 563.264V567.38H176.019C174.787 567.38 173.854 567.669 173.219 568.248C172.603 568.827 172.295 569.835 172.295 571.272V579H168.375V563.488H172.295V565.896ZM181.684 561.64C180.993 561.64 180.414 561.425 179.948 560.996C179.5 560.548 179.276 559.997 179.276 559.344C179.276 558.691 179.5 558.149 179.948 557.72C180.414 557.272 180.993 557.048 181.684 557.048C182.374 557.048 182.944 557.272 183.392 557.72C183.858 558.149 184.092 558.691 184.092 559.344C184.092 559.997 183.858 560.548 183.392 560.996C182.944 561.425 182.374 561.64 181.684 561.64ZM183.616 563.488V579H179.696V563.488H183.616ZM201.909 570.908C201.909 571.468 201.871 571.972 201.797 572.42H190.457C190.55 573.54 190.942 574.417 191.633 575.052C192.323 575.687 193.173 576.004 194.181 576.004C195.637 576.004 196.673 575.379 197.289 574.128H201.517C201.069 575.621 200.21 576.853 198.941 577.824C197.671 578.776 196.113 579.252 194.265 579.252C192.771 579.252 191.427 578.925 190.233 578.272C189.057 577.6 188.133 576.657 187.461 575.444C186.807 574.231 186.481 572.831 186.481 571.244C186.481 569.639 186.807 568.229 187.461 567.016C188.114 565.803 189.029 564.869 190.205 564.216C191.381 563.563 192.734 563.236 194.265 563.236C195.739 563.236 197.055 563.553 198.213 564.188C199.389 564.823 200.294 565.728 200.929 566.904C201.582 568.061 201.909 569.396 201.909 570.908ZM197.849 569.788C197.83 568.78 197.466 567.977 196.757 567.38C196.047 566.764 195.179 566.456 194.153 566.456C193.182 566.456 192.361 566.755 191.689 567.352C191.035 567.931 190.634 568.743 190.485 569.788H197.849ZM208.69 558.28V579H204.77V558.28H208.69ZM233.487 565.504C233.487 566.549 233.235 567.529 232.731 568.444C232.245 569.359 231.471 570.096 230.407 570.656C229.361 571.216 228.036 571.496 226.431 571.496H223.155V579H219.235V559.456H226.431C227.943 559.456 229.231 559.717 230.295 560.24C231.359 560.763 232.152 561.481 232.675 562.396C233.216 563.311 233.487 564.347 233.487 565.504ZM226.263 568.332C227.345 568.332 228.148 568.089 228.671 567.604C229.193 567.1 229.455 566.4 229.455 565.504C229.455 563.6 228.391 562.648 226.263 562.648H223.155V568.332H226.263ZM250.914 563.488V579H246.966V577.04C246.462 577.712 245.799 578.244 244.978 578.636C244.175 579.009 243.298 579.196 242.346 579.196C241.133 579.196 240.059 578.944 239.126 578.44C238.193 577.917 237.455 577.161 236.914 576.172C236.391 575.164 236.13 573.969 236.13 572.588V563.488H240.05V572.028C240.05 573.26 240.358 574.212 240.974 574.884C241.59 575.537 242.43 575.864 243.494 575.864C244.577 575.864 245.426 575.537 246.042 574.884C246.658 574.212 246.966 573.26 246.966 572.028V563.488H250.914ZM259.346 566.708V574.212C259.346 574.735 259.467 575.117 259.71 575.36C259.971 575.584 260.4 575.696 260.998 575.696H262.818V579H260.354C257.05 579 255.398 577.395 255.398 574.184V566.708H253.55V563.488H255.398V559.652H259.346V563.488H262.818V566.708H259.346ZM269.557 565.896C270.061 565.075 270.714 564.431 271.517 563.964C272.338 563.497 273.272 563.264 274.317 563.264V567.38H273.281C272.049 567.38 271.116 567.669 270.481 568.248C269.865 568.827 269.557 569.835 269.557 571.272V579H265.637V563.488H269.557V565.896ZM275.949 571.188C275.949 569.62 276.257 568.229 276.873 567.016C277.508 565.803 278.357 564.869 279.421 564.216C280.504 563.563 281.708 563.236 283.033 563.236C284.191 563.236 285.199 563.469 286.057 563.936C286.935 564.403 287.635 564.991 288.157 565.7V563.488H292.105V579H288.157V576.732C287.653 577.46 286.953 578.067 286.057 578.552C285.18 579.019 284.163 579.252 283.005 579.252C281.699 579.252 280.504 578.916 279.421 578.244C278.357 577.572 277.508 576.629 276.873 575.416C276.257 574.184 275.949 572.775 275.949 571.188ZM288.157 571.244C288.157 570.292 287.971 569.48 287.597 568.808C287.224 568.117 286.72 567.595 286.085 567.24C285.451 566.867 284.769 566.68 284.041 566.68C283.313 566.68 282.641 566.857 282.025 567.212C281.409 567.567 280.905 568.089 280.513 568.78C280.14 569.452 279.953 570.255 279.953 571.188C279.953 572.121 280.14 572.943 280.513 573.652C280.905 574.343 281.409 574.875 282.025 575.248C282.66 575.621 283.332 575.808 284.041 575.808C284.769 575.808 285.451 575.631 286.085 575.276C286.72 574.903 287.224 574.38 287.597 573.708C287.971 573.017 288.157 572.196 288.157 571.244Z" fill="white"/>
</svg>
