<svg width="400" height="600" viewBox="0 0 400 600" fill="none" xmlns="http://www.w3.org/2000/svg">
<rect width="400" height="600" rx="16" fill="#A7C8FD"/>
<path d="M151.36 57.7999C151.36 57.7999 123.711 47.9255 105.938 87.423C88.1638 126.92 60.5155 170.368 60.5155 170.368L76.3145 174.318C76.3145 174.318 80.2643 146.669 90.1386 142.719L86.1889 178.267C86.1889 178.267 204.681 219.74 258.003 174.318L256.028 160.493C256.028 160.493 263.928 162.468 263.928 174.318L269.852 168.393C269.852 168.393 263.928 156.544 246.154 140.745C234.488 130.375 230.479 110.646 229.101 98.312C228.069 88.0125 223.948 78.2654 217.279 70.349C205.468 56.66 183.945 42.1106 151.36 57.7999Z" fill="#2F2E41"/>
<path d="M319.166 281.301C319.166 281.301 371.194 325.678 378.845 351.692C386.496 377.706 349.77 380.767 349.77 380.767L270.198 388.418C270.198 388.418 268.668 425.144 254.896 429.734C241.123 434.325 252.1 369.003 252.1 369.003L329.877 347.102L294.682 310.376L319.166 281.301Z" fill="#FBBEBE"/>
<path d="M75.8578 327.208L69.7368 408.311L36.0715 546.033C36.0715 546.033 5.48594 594.97 31.5 596.5C57.5141 598.03 55.9647 550.623 55.9647 550.623L104.932 420.553L109.523 331.799L75.8578 327.208Z" fill="#FBBEBE"/>
<path d="M161.551 184.896C189.441 184.896 212.049 162.287 212.049 134.398C212.049 106.509 189.441 83.9001 161.551 83.9001C133.662 83.9001 111.053 106.509 111.053 134.398C111.053 162.287 133.662 184.896 161.551 184.896Z" fill="#FBBEBE"/>
<path d="M138.597 158.882C138.597 158.882 156.96 224.682 127.886 241.515C98.8112 258.348 201.337 270.59 228.882 220.092C228.882 220.092 179.914 203.259 193.686 158.882H138.597Z" fill="#FBBEBE"/>
<path d="M103.402 249.166L94.2205 246.106C94.2205 246.106 75.8576 253.757 75.8576 267.529C75.8576 281.301 72.7971 336.39 72.7971 336.39L114.114 340.98L103.402 249.166Z" fill="#FF6584"/>
<path d="M283.239 554.298C226.749 562.666 144.415 569.424 59.0298 557.68C59.0228 556.836 59.0228 556.014 59.0228 555.212C59.0228 550.437 59.2057 545.716 59.5713 541.049C63.9454 483.581 93.5511 435.671 105.007 419.068C105.583 418.224 106.118 417.464 106.596 416.789C108.445 414.194 109.521 412.823 109.521 412.823C109.521 412.823 198.275 411.374 244.182 429.736C246.395 430.665 248.421 431.99 250.159 433.645C267.276 449.44 277.332 500.719 283.239 554.298Z" fill="#2F2E41"/>
<path d="M250.305 227.743C250.305 227.743 270.198 217.031 290.091 239.985L329.878 285.892L299.273 319.557L241.124 284.362L250.305 227.743Z" fill="#FF6584"/>
<path d="M106.984 134.718C124.86 121.781 139.331 106.879 148.904 89.1532C148.904 89.1532 181.71 125.605 201.759 127.428C221.808 129.25 203.582 83.6854 203.582 83.6854L167.13 74.5724L132.5 78.2176L105.161 96.4436L106.984 134.718Z" fill="#2F2E41"/>
<path d="M221.231 217.031C221.231 217.031 199.816 250.89 135.541 234.726L99.0683 244.771L94.2207 246.106C94.2207 246.106 98.8114 337.92 111.053 354.753C123.295 371.586 120.235 380.767 117.174 382.297C114.114 383.827 108.438 380.857 111.053 388.418C119.419 397.752 121.765 391.479 115.644 396.069C109.523 400.66 106.463 417.493 106.463 417.493L250.305 435.856C250.305 435.856 245.714 376.176 257.956 345.571C270.198 314.967 273.259 302.725 273.259 302.725L264.077 226.213L221.231 217.031Z" fill="#FF6584"/>
<rect y="510" width="400" height="90" rx="16" fill="#949393"/>
<rect y="510" width="400" height="90" rx="16" fill="#307DFB"/>
<path d="M118.142 551.336C117.694 550.515 117.078 549.889 116.294 549.46C115.51 549.031 114.595 548.816 113.55 548.816C112.392 548.816 111.366 549.077 110.47 549.6C109.574 550.123 108.874 550.869 108.37 551.84C107.866 552.811 107.614 553.931 107.614 555.2C107.614 556.507 107.866 557.645 108.37 558.616C108.892 559.587 109.611 560.333 110.526 560.856C111.44 561.379 112.504 561.64 113.718 561.64C115.211 561.64 116.434 561.248 117.386 560.464C118.338 559.661 118.963 558.551 119.262 557.132H112.542V554.136H123.126V557.552C122.864 558.915 122.304 560.175 121.446 561.332C120.587 562.489 119.476 563.423 118.114 564.132C116.77 564.823 115.258 565.168 113.578 565.168C111.692 565.168 109.984 564.748 108.454 563.908C106.942 563.049 105.747 561.864 104.87 560.352C104.011 558.84 103.582 557.123 103.582 555.2C103.582 553.277 104.011 551.56 104.87 550.048C105.747 548.517 106.942 547.332 108.454 546.492C109.984 545.633 111.683 545.204 113.55 545.204C115.752 545.204 117.666 545.745 119.29 546.828C120.914 547.892 122.034 549.395 122.65 551.336H118.142ZM125.018 557.188C125.018 555.62 125.326 554.229 125.942 553.016C126.576 551.803 127.426 550.869 128.49 550.216C129.572 549.563 130.776 549.236 132.102 549.236C133.259 549.236 134.267 549.469 135.126 549.936C136.003 550.403 136.703 550.991 137.226 551.7V549.488H141.174V565H137.226V562.732C136.722 563.46 136.022 564.067 135.126 564.552C134.248 565.019 133.231 565.252 132.074 565.252C130.767 565.252 129.572 564.916 128.49 564.244C127.426 563.572 126.576 562.629 125.942 561.416C125.326 560.184 125.018 558.775 125.018 557.188ZM137.226 557.244C137.226 556.292 137.039 555.48 136.666 554.808C136.292 554.117 135.788 553.595 135.154 553.24C134.519 552.867 133.838 552.68 133.11 552.68C132.382 552.68 131.71 552.857 131.094 553.212C130.478 553.567 129.974 554.089 129.582 554.78C129.208 555.452 129.022 556.255 129.022 557.188C129.022 558.121 129.208 558.943 129.582 559.652C129.974 560.343 130.478 560.875 131.094 561.248C131.728 561.621 132.4 561.808 133.11 561.808C133.838 561.808 134.519 561.631 135.154 561.276C135.788 560.903 136.292 560.38 136.666 559.708C137.039 559.017 137.226 558.196 137.226 557.244ZM148.922 551.756C149.426 551.009 150.117 550.403 150.994 549.936C151.89 549.469 152.908 549.236 154.046 549.236C155.372 549.236 156.566 549.563 157.63 550.216C158.713 550.869 159.562 551.803 160.178 553.016C160.813 554.211 161.13 555.601 161.13 557.188C161.13 558.775 160.813 560.184 160.178 561.416C159.562 562.629 158.713 563.572 157.63 564.244C156.566 564.916 155.372 565.252 154.046 565.252C152.889 565.252 151.872 565.028 150.994 564.58C150.136 564.113 149.445 563.516 148.922 562.788V565H145.002V544.28H148.922V551.756ZM157.126 557.188C157.126 556.255 156.93 555.452 156.538 554.78C156.165 554.089 155.661 553.567 155.026 553.212C154.41 552.857 153.738 552.68 153.01 552.68C152.301 552.68 151.629 552.867 150.994 553.24C150.378 553.595 149.874 554.117 149.482 554.808C149.109 555.499 148.922 556.311 148.922 557.244C148.922 558.177 149.109 558.989 149.482 559.68C149.874 560.371 150.378 560.903 150.994 561.276C151.629 561.631 152.301 561.808 153.01 561.808C153.738 561.808 154.41 561.621 155.026 561.248C155.661 560.875 156.165 560.343 156.538 559.652C156.93 558.961 157.126 558.14 157.126 557.188ZM167.899 551.896C168.403 551.075 169.056 550.431 169.859 549.964C170.68 549.497 171.614 549.264 172.659 549.264V553.38H171.623C170.391 553.38 169.458 553.669 168.823 554.248C168.207 554.827 167.899 555.835 167.899 557.272V565H163.979V549.488H167.899V551.896ZM177.287 547.64C176.597 547.64 176.018 547.425 175.551 546.996C175.103 546.548 174.879 545.997 174.879 545.344C174.879 544.691 175.103 544.149 175.551 543.72C176.018 543.272 176.597 543.048 177.287 543.048C177.978 543.048 178.547 543.272 178.995 543.72C179.462 544.149 179.695 544.691 179.695 545.344C179.695 545.997 179.462 546.548 178.995 546.996C178.547 547.425 177.978 547.64 177.287 547.64ZM179.219 549.488V565H175.299V549.488H179.219ZM197.512 556.908C197.512 557.468 197.475 557.972 197.4 558.42H186.06C186.153 559.54 186.545 560.417 187.236 561.052C187.927 561.687 188.776 562.004 189.784 562.004C191.24 562.004 192.276 561.379 192.892 560.128H197.12C196.672 561.621 195.813 562.853 194.544 563.824C193.275 564.776 191.716 565.252 189.868 565.252C188.375 565.252 187.031 564.925 185.836 564.272C184.66 563.6 183.736 562.657 183.064 561.444C182.411 560.231 182.084 558.831 182.084 557.244C182.084 555.639 182.411 554.229 183.064 553.016C183.717 551.803 184.632 550.869 185.808 550.216C186.984 549.563 188.337 549.236 189.868 549.236C191.343 549.236 192.659 549.553 193.816 550.188C194.992 550.823 195.897 551.728 196.532 552.904C197.185 554.061 197.512 555.396 197.512 556.908ZM193.452 555.788C193.433 554.78 193.069 553.977 192.36 553.38C191.651 552.764 190.783 552.456 189.756 552.456C188.785 552.456 187.964 552.755 187.292 553.352C186.639 553.931 186.237 554.743 186.088 555.788H193.452ZM204.293 544.28V565H200.373V544.28H204.293ZM207.158 557.188C207.158 555.62 207.466 554.229 208.082 553.016C208.717 551.803 209.566 550.869 210.63 550.216C211.713 549.563 212.917 549.236 214.242 549.236C215.4 549.236 216.408 549.469 217.266 549.936C218.144 550.403 218.844 550.991 219.366 551.7V549.488H223.314V565H219.366V562.732C218.862 563.46 218.162 564.067 217.266 564.552C216.389 565.019 215.372 565.252 214.214 565.252C212.908 565.252 211.713 564.916 210.63 564.244C209.566 563.572 208.717 562.629 208.082 561.416C207.466 560.184 207.158 558.775 207.158 557.188ZM219.366 557.244C219.366 556.292 219.18 555.48 218.806 554.808C218.433 554.117 217.929 553.595 217.294 553.24C216.66 552.867 215.978 552.68 215.25 552.68C214.522 552.68 213.85 552.857 213.234 553.212C212.618 553.567 212.114 554.089 211.722 554.78C211.349 555.452 211.162 556.255 211.162 557.188C211.162 558.121 211.349 558.943 211.722 559.652C212.114 560.343 212.618 560.875 213.234 561.248C213.869 561.621 214.541 561.808 215.25 561.808C215.978 561.808 216.66 561.631 217.294 561.276C217.929 560.903 218.433 560.38 218.806 559.708C219.18 559.017 219.366 558.196 219.366 557.244ZM248.067 551.504C248.067 552.549 247.815 553.529 247.311 554.444C246.825 555.359 246.051 556.096 244.987 556.656C243.941 557.216 242.616 557.496 241.011 557.496H237.735V565H233.815V545.456H241.011C242.523 545.456 243.811 545.717 244.875 546.24C245.939 546.763 246.732 547.481 247.255 548.396C247.796 549.311 248.067 550.347 248.067 551.504ZM240.843 554.332C241.925 554.332 242.728 554.089 243.251 553.604C243.773 553.1 244.035 552.4 244.035 551.504C244.035 549.6 242.971 548.648 240.843 548.648H237.735V554.332H240.843ZM265.494 549.488V565H261.546V563.04C261.042 563.712 260.379 564.244 259.558 564.636C258.755 565.009 257.878 565.196 256.926 565.196C255.713 565.196 254.639 564.944 253.706 564.44C252.773 563.917 252.035 563.161 251.494 562.172C250.971 561.164 250.71 559.969 250.71 558.588V549.488H254.63V558.028C254.63 559.26 254.938 560.212 255.554 560.884C256.17 561.537 257.01 561.864 258.074 561.864C259.157 561.864 260.006 561.537 260.622 560.884C261.238 560.212 261.546 559.26 261.546 558.028V549.488H265.494ZM273.926 552.708V560.212C273.926 560.735 274.047 561.117 274.29 561.36C274.551 561.584 274.98 561.696 275.578 561.696H277.398V565H274.934C271.63 565 269.978 563.395 269.978 560.184V552.708H268.13V549.488H269.978V545.652H273.926V549.488H277.398V552.708H273.926ZM284.137 551.896C284.641 551.075 285.294 550.431 286.097 549.964C286.918 549.497 287.852 549.264 288.897 549.264V553.38H287.861C286.629 553.38 285.696 553.669 285.061 554.248C284.445 554.827 284.137 555.835 284.137 557.272V565H280.217V549.488H284.137V551.896ZM293.525 547.64C292.835 547.64 292.256 547.425 291.789 546.996C291.341 546.548 291.117 545.997 291.117 545.344C291.117 544.691 291.341 544.149 291.789 543.72C292.256 543.272 292.835 543.048 293.525 543.048C294.216 543.048 294.785 543.272 295.233 543.72C295.7 544.149 295.933 544.691 295.933 545.344C295.933 545.997 295.7 546.548 295.233 546.996C294.785 547.425 294.216 547.64 293.525 547.64ZM295.457 549.488V565H291.537V549.488H295.457Z" fill="white"/>
</svg>
